<svg xmlns="http://www.w3.org/2000/svg" viewBox="0 0 349.46 130.33"><defs><style>.cls-1{fill:#fff;}</style></defs><title>Ресурс 6</title><g id="Слой_2" data-name="Слой 2"><g id="Слой_1-2" data-name="Слой 1"><path class="cls-1" d="M.8,47.56h18v1.3H.8Z"/><path class="cls-1" d="M27.1,44.76h1.54v3.88h4.78V44.76H35V54.5H33.42V50H28.64v4.5H27.1Z"/><path class="cls-1" d="M46.94,50.1h-7.7a3.45,3.45,0,0,0,3.58,3.2,4.1,4.1,0,0,0,3-1.32l.9,1a5.25,5.25,0,0,1-3.9,1.7,5.09,5.09,0,0,1-.18-10.18,4.29,4.29,0,0,1,4.44,4.4A6,6,0,0,1,46.94,50.1ZM39.3,48.74h6.18a2.74,2.74,0,0,0-2.9-2.8A3.32,3.32,0,0,0,39.3,48.74Z"/><path class="cls-1" d="M59.36,49.8a5,5,0,0,1-5.08,4.9c-3,0-5-2.24-5-5.48v-1.7c0-4.06.86-6.58,6-7.46a17.48,17.48,0,0,0,3.28-.78v1.48a13.71,13.71,0,0,1-3.1.72c-4.42.64-4.68,2.8-4.68,5.38a4.46,4.46,0,0,1,3.74-2A4.89,4.89,0,0,1,59.36,49.8Zm-1.58,0a3.48,3.48,0,1,0-3.48,3.48A3.46,3.46,0,0,0,57.78,49.8Z"/><path class="cls-1" d="M61.36,49.62a5.1,5.1,0,1,1,5.08,5.08A5,5,0,0,1,61.36,49.62Zm8.62,0a3.52,3.52,0,1,0-7,0,3.49,3.49,0,0,0,3.5,3.64A3.53,3.53,0,0,0,70,49.64Z"/><path class="cls-1" d="M81.62,44.76V54.5H80.08V46.14H76.46l0,1.2c-.14,4.9-.82,7.24-3.14,7.24a1.66,1.66,0,0,1-.52-.08v-1.3a2.51,2.51,0,0,0,.4,0c1.32,0,1.72-2.22,1.8-5.94L75,44.76Z"/><path class="cls-1" d="M85,44.76h1.54v3.36h2.32c2.22,0,3.64,1.28,3.64,3.18s-1.42,3.2-3.64,3.2H85Zm3.78,8.38c1.38,0,2.14-.74,2.14-1.82s-.78-1.84-2.16-1.84H86.56v3.66Z"/><path class="cls-1" d="M95.22,44.76h1.54v8.38h4.08V44.76h1.54v8.38h4.1V44.76H108V54.5H95.22Z"/><path class="cls-1" d="M118.7,48.5v6h-1.44V53.24A3.92,3.92,0,0,1,114,54.72c-2,0-3.4-1-3.4-2.74s1.38-2.72,3.5-2.72h3.08v-.84A2.19,2.19,0,0,0,114.8,46,3.44,3.44,0,0,0,112,47.52l-1-.84a4.5,4.5,0,0,1,4-2.14C117.12,44.54,118.7,45.88,118.7,48.5Zm-1.54,2.26v-.24h-2.9c-1.36,0-2.1.46-2.1,1.38s.94,1.54,2,1.54A2.84,2.84,0,0,0,117.16,50.76Z"/><path class="cls-1" d="M129.06,44.76V54.5h-1.54V50.94h-1.84L123,54.5h-1.8L124,50.74a2.93,2.93,0,0,1-2.3-2.86c0-1.9,1.36-3.12,3.44-3.12Zm-1.54,1.38h-2.24c-1.22,0-2,.64-2,1.72a1.74,1.74,0,0,0,2,1.72h2.22Z"/><path class="cls-1" d="M146.62,44.76l-4.8,11.1c-.76,1.74-1.82,2.46-3.3,2.46a6.3,6.3,0,0,1-1.5-.2v-1.3a9.28,9.28,0,0,0,1.18.1,2.17,2.17,0,0,0,2.2-1.56l.52-1.16-4-9.44h1.66l3.22,7.76L145,44.76Z"/><path class="cls-1" d="M162.12,49.62a5,5,0,0,1-5,5.08,5,5,0,0,1-5-4.7h-1.76v4.5h-1.54V44.76h1.54v3.88h1.82a5,5,0,0,1,4.92-4.1A5,5,0,0,1,162.12,49.62Zm-1.58,0A3.5,3.5,0,0,0,157.12,46a3.67,3.67,0,1,0,3.42,3.68Z"/><path class="cls-1" d="M166.64,46.14h-3.28V44.76h8.08v1.38h-3.28V54.5h-1.52Z"/><path class="cls-1" d="M173.56,44.76h1.54v3.88h4.78V44.76h1.54V54.5h-1.54V50H175.1v4.5h-1.54Z"/><path class="cls-1" d="M192.1,48.5v6h-1.44V53.24a3.92,3.92,0,0,1-3.28,1.48c-2,0-3.4-1-3.4-2.74s1.38-2.72,3.5-2.72h3.08v-.84A2.19,2.19,0,0,0,188.2,46a3.44,3.44,0,0,0-2.84,1.56l-1-.84a4.5,4.5,0,0,1,4-2.14C190.52,44.54,192.1,45.88,192.1,48.5Zm-1.54,2.26v-.24h-2.9c-1.36,0-2.1.46-2.1,1.38s.94,1.54,2,1.54A2.84,2.84,0,0,0,190.56,50.76Z"/><path class="cls-1" d="M202.46,44.76V54.5h-1.54V50.94h-1.84L196.4,54.5h-1.8l2.84-3.76a2.93,2.93,0,0,1-2.3-2.86c0-1.9,1.36-3.12,3.44-3.12Zm-1.54,1.38h-2.24c-1.22,0-2,.64-2,1.72a1.74,1.74,0,0,0,2,1.72h2.22Z"/><path class="cls-1" d="M220.6,53.14v4.18h-1.54V54.5H211.4v2.82h-1.54V53.14H211c1-1,1.22-3,1.28-5.64l.06-2.74H219v8.38Zm-8,0h4.9v-7h-3.72l-.06,1.38C213.64,50.32,213.2,52.26,212.58,53.14Z"/><path class="cls-1" d="M231.06,44.54v10h-1.54V47.62l-5.94,7.1H223v-10h1.54v6.9l5.94-7.12Z"/><path class="cls-1" d="M241.06,51.7c0,1.84-1.48,3-3.68,3a4.45,4.45,0,0,1-3.74-1.88l1-.92a3.17,3.17,0,0,0,2.68,1.38c1.38,0,2.12-.7,2.12-1.7s-.7-1.58-2.12-1.58H236.3V48.66h1c1.16,0,1.7-.54,1.7-1.36S238.44,46,237.3,46a2.92,2.92,0,0,0-2.44,1.2l-1-.92a4.2,4.2,0,0,1,3.54-1.7c1.94,0,3.2,1,3.2,2.66a2.38,2.38,0,0,1-1.16,2.1A2.5,2.5,0,0,1,241.06,51.7Z"/><path class="cls-1" d="M251.1,48.5v6h-1.44V53.24a3.92,3.92,0,0,1-3.28,1.48c-2,0-3.4-1-3.4-2.74s1.38-2.72,3.5-2.72h3.08v-.84A2.19,2.19,0,0,0,247.2,46a3.44,3.44,0,0,0-2.84,1.56l-1-.84a4.5,4.5,0,0,1,4-2.14C249.52,44.54,251.1,45.88,251.1,48.5Zm-1.54,2.26v-.24h-2.9c-1.36,0-2.1.46-2.1,1.38s.94,1.54,2,1.54A2.84,2.84,0,0,0,249.56,50.76Z"/><path class="cls-1" d="M262.4,44.54v10h-1.54V47.62l-5.94,7.1h-.56v-10h1.54v6.9l5.94-7.12Zm-6.82-4.66v-.62h1.3v.58c0,1.3.64,2,1.72,2s1.74-.74,1.74-2v-.58h1.3v.62a3,3,0,1,1-6.06,0Z"/><path class="cls-1" d="M265.78,44.76h1.54v3.88h4.78V44.76h1.54V54.5H272.1V50h-4.78v4.5h-1.54Z"/><path class="cls-1" d="M276.38,47.56h4.78v1.3h-4.78Z"/><path class="cls-1" d="M288.84,49.62a5.05,5.05,0,0,1,5.1-5.08,4.72,4.72,0,0,1,4,2.12l-1.1.88a3.68,3.68,0,1,0,0,4.2l1.1.86a4.71,4.71,0,0,1-4,2.12A5.06,5.06,0,0,1,288.84,49.62Z"/><path class="cls-1" d="M302.54,46.14h-3.28V44.76h8.08v1.38h-3.28V54.5h-1.52Z"/><path class="cls-1" d="M318.12,44.76l-4.8,11.1c-.76,1.74-1.82,2.46-3.3,2.46a6.3,6.3,0,0,1-1.5-.2v-1.3a9.28,9.28,0,0,0,1.18.1,2.17,2.17,0,0,0,2.2-1.56l.52-1.16-4-9.44H310l3.22,7.76,3.22-7.76Z"/><path class="cls-1" d="M328.52,53.14v4.18H327V54.5h-7.66v2.82h-1.54V53.14h1.1c1-1,1.22-3,1.28-5.64l.06-2.74h6.72v8.38Zm-8,0h4.9v-7h-3.72l-.06,1.38C321.56,50.32,321.12,52.26,320.5,53.14Z"/><path class="cls-1" d="M339,44.54v10h-1.54V47.62l-5.94,7.1h-.56v-10h1.54v6.9l5.94-7.12Z"/><path class="cls-1" d="M349.46,44.76V54.5h-1.54V50.94h-1.84L343.4,54.5h-1.8l2.84-3.76a2.93,2.93,0,0,1-2.3-2.86c0-1.9,1.36-3.12,3.44-3.12Zm-1.54,1.38h-2.24c-1.22,0-2,.64-2,1.72a1.74,1.74,0,0,0,2,1.72h2.22Z"/><path class="cls-1" d="M9.54,68.54v10H8V71.62l-5.94,7.1H1.5v-10H3v6.9L9,68.54Z"/><path class="cls-1" d="M19.54,75.7c0,1.84-1.48,3-3.68,3a4.45,4.45,0,0,1-3.74-1.88l1-.92a3.17,3.17,0,0,0,2.68,1.38c1.38,0,2.12-.7,2.12-1.7S17.26,74,15.84,74H14.78V72.66h1c1.16,0,1.7-.54,1.7-1.36S16.92,70,15.78,70a2.92,2.92,0,0,0-2.44,1.2l-1-.92a4.2,4.2,0,0,1,3.54-1.7c1.94,0,3.2,1,3.2,2.66a2.38,2.38,0,0,1-1.16,2.1A2.5,2.5,0,0,1,19.54,75.7Z"/><path class="cls-1" d="M28,65.3h1.56v5.44H37V65.3h1.56V78.5H37V72.14h-7.4V78.5H28Z"/><path class="cls-1" d="M50,68.54v10H48.44V71.62l-5.94,7.1h-.56v-10h1.54v6.9l5.94-7.12Z"/><path class="cls-1" d="M54.36,68.76l4,4.46L53.94,78.5H52.06l4.46-5.28-4.08-4.46Zm4.22,0h1.54V78.5H58.58Zm8.1,9.74H64.76l-4.44-5.28,4-4.46h1.9l-4,4.42Z"/><path class="cls-1" d="M68.8,68.76h1.54v3.88h4.78V68.76h1.54V78.5H75.12V74H70.34v4.5H68.8Z"/><path class="cls-1" d="M88.64,74.1h-7.7a3.45,3.45,0,0,0,3.58,3.2,4.1,4.1,0,0,0,3-1.32l.9,1a5.25,5.25,0,0,1-3.9,1.7,5.09,5.09,0,0,1-.18-10.18,4.29,4.29,0,0,1,4.44,4.4A6,6,0,0,1,88.64,74.1ZM81,72.74h6.18a2.74,2.74,0,0,0-2.9-2.8A3.32,3.32,0,0,0,81,72.74Z"/><path class="cls-1" d="M91.46,68.76H98v1.38H93V78.5H91.46Z"/><path class="cls-1" d="M99,73.62a5.1,5.1,0,1,1,5.08,5.08A5,5,0,0,1,99,73.62Zm8.62,0a3.52,3.52,0,1,0-7,0,3.49,3.49,0,0,0,3.5,3.64A3.53,3.53,0,0,0,107.64,73.64Z"/><path class="cls-1" d="M117.64,65.3h1.56v5.44h7.4V65.3h1.56V78.5H126.6V72.14h-7.4V78.5h-1.56Z"/><path class="cls-1" d="M130.88,73.62A5.1,5.1,0,1,1,136,78.71,5,5,0,0,1,130.88,73.62Zm8.62,0a3.52,3.52,0,1,0-7,0,3.49,3.49,0,0,0,3.5,3.64A3.53,3.53,0,0,0,139.5,73.64Z"/><path class="cls-1" d="M151.76,75.56c0,1.7-1.32,2.94-3.46,2.94h-4.52V68.76h4c1.92,0,3.14,1,3.14,2.58a2.19,2.19,0,0,1-1,1.88A2.45,2.45,0,0,1,151.76,75.56Zm-6.44-2.82h2.5c1.08,0,1.6-.5,1.6-1.32s-.52-1.28-1.6-1.28h-2.5Zm4.9,2.82c0-.9-.74-1.46-2-1.46h-2.88v3h2.88C149.52,77.14,150.22,76.46,150.22,75.56Z"/><path class="cls-1" d="M154.66,68.76h6.56v1.38h-5V78.5h-1.54Z"/><path class="cls-1" d="M162.22,73.62a5.1,5.1,0,1,1,5.08,5.08A5,5,0,0,1,162.22,73.62Zm8.62,0a3.52,3.52,0,1,0-7,0,3.49,3.49,0,0,0,3.5,3.64A3.53,3.53,0,0,0,170.84,73.64Z"/><path class="cls-1" d="M185.06,73.62a4.85,4.85,0,0,1-4.82,5.1,4.56,4.56,0,0,1-3.58-1.62v5h-1.54V68.76h1.44v1.56a4.41,4.41,0,0,1,3.68-1.78A4.84,4.84,0,0,1,185.06,73.62Zm-1.58,0A3.47,3.47,0,0,0,180,70a3.68,3.68,0,0,0,0,7.34A3.46,3.46,0,0,0,183.48,73.64Z"/><path class="cls-1" d="M187.06,73.62a5.1,5.1,0,1,1,5.08,5.08A5,5,0,0,1,187.06,73.62Zm8.62,0a3.52,3.52,0,1,0-7,0,3.49,3.49,0,0,0,3.5,3.64A3.53,3.53,0,0,0,195.68,73.64Z"/><path class="cls-1" d="M208.8,77.14v4.18h-1.54V78.5H199.6v2.82h-1.54V77.14h1.1c1-1,1.22-3,1.28-5.64l.06-2.74h6.72v8.38Zm-8,0h4.9v-7H202l-.06,1.38C201.84,74.32,201.4,76.26,200.78,77.14Z"/><path class="cls-1" d="M218.52,72.5v6h-1.44V77.24a3.92,3.92,0,0,1-3.28,1.48c-2,0-3.4-1-3.4-2.74s1.38-2.72,3.5-2.72H217v-.84A2.19,2.19,0,0,0,214.62,70a3.44,3.44,0,0,0-2.84,1.56l-1-.84a4.5,4.5,0,0,1,4-2.14C216.94,68.54,218.52,69.88,218.52,72.5ZM217,74.76v-.24h-2.9c-1.36,0-2.1.46-2.1,1.38s.94,1.54,2,1.54A2.84,2.84,0,0,0,217,74.76Z"/><path class="cls-1" d="M221.62,77.46a1.26,1.26,0,1,1,1.26,1.26A1.24,1.24,0,0,1,221.62,77.46Z"/><path class="cls-1" d="M12.7,101.1v4.22H11.14V102.5H1.56v2.82H0V101.1H1C2.42,99.8,3.08,96.88,3.08,91l0-1.66h8v11.8Zm-9.94,0H9.54V90.7h-5C4.48,96.3,3.9,99.58,2.76,101.1Z"/><path class="cls-1" d="M23.4,98.1H15.7a3.45,3.45,0,0,0,3.58,3.2,4.1,4.1,0,0,0,3-1.32l.9,1a5.25,5.25,0,0,1-3.9,1.7,5.09,5.09,0,0,1-.18-10.18,4.29,4.29,0,0,1,4.44,4.4A6,6,0,0,1,23.4,98.1Zm-7.64-1.36h6.18a2.74,2.74,0,0,0-2.9-2.8A3.32,3.32,0,0,0,15.76,96.74Z"/><path class="cls-1" d="M33.58,92.76v9.74H32V94.14H28.42l0,1.2c-.14,4.9-.82,7.24-3.14,7.24a1.66,1.66,0,0,1-.52-.08v-1.3a2.51,2.51,0,0,0,.4,0c1.32,0,1.72-2.22,1.8-5.94L27,92.76Z"/><path class="cls-1" d="M44.28,96.5v6H42.84v-1.26a3.92,3.92,0,0,1-3.28,1.48c-2,0-3.4-1-3.4-2.74s1.38-2.72,3.5-2.72h3.08v-.84A2.19,2.19,0,0,0,40.38,94a3.44,3.44,0,0,0-2.84,1.56l-1-.84a4.5,4.5,0,0,1,4-2.14C42.7,92.54,44.28,93.88,44.28,96.5Zm-1.54,2.26v-.24h-2.9c-1.36,0-2.1.46-2.1,1.38s.94,1.54,2,1.54A2.84,2.84,0,0,0,42.74,98.76Z"/><path class="cls-1" d="M56.14,98.1h-7.7A3.45,3.45,0,0,0,52,101.3,4.1,4.1,0,0,0,55,100l.9,1a5.25,5.25,0,0,1-3.9,1.7,5.09,5.09,0,0,1-.18-10.18,4.29,4.29,0,0,1,4.44,4.4A6,6,0,0,1,56.14,98.1ZM48.5,96.74h6.18a2.74,2.74,0,0,0-2.9-2.8A3.32,3.32,0,0,0,48.5,96.74Z"/><path class="cls-1" d="M59,92.54h.56L64.14,98l4.6-5.48h.54v10H67.74V95.92l-3.32,4h-.6l-3.32-4v6.58H59Z"/><path class="cls-1" d="M77.58,97.62a5.05,5.05,0,0,1,5.1-5.08,4.72,4.72,0,0,1,4,2.12l-1.1.88a3.68,3.68,0,1,0,0,4.2l1.1.86a4.71,4.71,0,0,1-4,2.12A5.06,5.06,0,0,1,77.58,97.62Z"/><path class="cls-1" d="M96.6,96.5v6H95.16v-1.26a3.92,3.92,0,0,1-3.28,1.48c-2,0-3.4-1-3.4-2.74s1.38-2.72,3.5-2.72h3.08v-.84A2.19,2.19,0,0,0,92.7,94a3.44,3.44,0,0,0-2.84,1.56l-1-.84a4.5,4.5,0,0,1,4-2.14C95,92.54,96.6,93.88,96.6,96.5Zm-1.54,2.26v-.24h-2.9c-1.36,0-2.1.46-2.1,1.38s.94,1.54,2,1.54A2.84,2.84,0,0,0,95.06,98.76Z"/><path class="cls-1" d="M107.9,92.54v10h-1.54V95.62l-5.94,7.1h-.56v-10h1.54v6.9l5.94-7.12Zm-6.82-4.66v-.62h1.3v.58c0,1.3.64,2,1.72,2s1.74-.74,1.74-2v-.58h1.3v.62a3,3,0,1,1-6.06,0Z"/><path class="cls-1" d="M113.26,94.14H110V92.76h8.08v1.38h-3.28v8.36h-1.52Z"/><path class="cls-1" d="M120.18,92.76h1.54v3.36H124c2.2,0,3.64,1.26,3.64,3.18s-1.44,3.2-3.64,3.2h-3.86Zm3.78,8.38c1.38,0,2.14-.66,2.14-1.82s-.78-1.84-2.16-1.84h-2.22v3.66Zm5.14-8.38h1.54v9.74H129.1Z"/><path class="cls-1" d="M134.38,100.7h1.82l-.82,5.38h-1.26Z"/><path class="cls-1" d="M151.56,102.72v3.38H150v-3.38c-3.2-.12-5.5-2-5.5-5.08s2.34-4.94,5.5-5.06V87.5h1.54v5.08c3.2.12,5.5,2,5.5,5.08S154.72,102.6,151.56,102.72ZM150,101.36V93.94c-2.38.1-3.94,1.44-3.94,3.72S147.66,101.26,150,101.36Zm5.44-3.72c0-2.28-1.56-3.6-3.94-3.7v7.42C153.92,101.26,155.48,99.92,155.48,97.64Z"/><path class="cls-1" d="M167.8,92.54v10h-1.54V95.62l-5.94,7.1h-.56v-10h1.54v6.9l5.94-7.12Z"/><path class="cls-1" d="M181.12,97.62a4.85,4.85,0,0,1-4.82,5.1,4.56,4.56,0,0,1-3.58-1.62v5h-1.54V92.76h1.44v1.56a4.41,4.41,0,0,1,3.68-1.78A4.84,4.84,0,0,1,181.12,97.62Zm-1.58,0A3.47,3.47,0,0,0,176.08,94a3.68,3.68,0,0,0,0,7.34A3.46,3.46,0,0,0,179.54,97.64Z"/><path class="cls-1" d="M183.82,92.54h.56L189,98l4.6-5.48h.54v10H192.6V95.92l-3.32,4h-.6l-3.32-4v6.58h-1.54Z"/><path class="cls-1" d="M206.14,98.1h-7.7a3.45,3.45,0,0,0,3.58,3.2,4.1,4.1,0,0,0,3-1.32l.9,1a5.25,5.25,0,0,1-3.9,1.7,5.09,5.09,0,0,1-.18-10.18,4.29,4.29,0,0,1,4.44,4.4A6,6,0,0,1,206.14,98.1Zm-7.64-1.36h6.18a2.74,2.74,0,0,0-2.9-2.8A3.32,3.32,0,0,0,198.5,96.74Z"/><path class="cls-1" d="M209,92.76h1.54v3.88h4.78V92.76h1.54v9.74h-1.54V98H210.5v4.5H209Z"/><path class="cls-1" d="M220.2,92.76h1.54v3.88h4.78V92.76h1.54v9.74h-1.54V98h-4.78v4.5H220.2Z"/><path class="cls-1" d="M231.44,92.76H233v3.36h2.32c2.2,0,3.64,1.26,3.64,3.18s-1.44,3.2-3.64,3.2h-3.86Zm3.78,8.38c1.38,0,2.14-.66,2.14-1.82s-.78-1.84-2.16-1.84H233v3.66Zm5.14-8.38h1.54v9.74h-1.54Z"/><path class="cls-1" d="M253.88,98.1h-7.7a3.45,3.45,0,0,0,3.58,3.2,4.1,4.1,0,0,0,3-1.32l.9,1a5.25,5.25,0,0,1-3.9,1.7,5.09,5.09,0,0,1-.18-10.18,4.29,4.29,0,0,1,4.44,4.4A6,6,0,0,1,253.88,98.1Zm-7.64-1.36h6.18a2.74,2.74,0,0,0-2.9-2.8A3.32,3.32,0,0,0,246.24,96.74Z"/><path class="cls-1" d="M261.6,97.62a5.05,5.05,0,0,1,5.1-5.08,4.72,4.72,0,0,1,4,2.12l-1.1.88a3.68,3.68,0,1,0,0,4.2l1.1.86a4.71,4.71,0,0,1-4,2.12A5.06,5.06,0,0,1,261.6,97.62Z"/><path class="cls-1" d="M275.3,94.14H272V92.76h8.08v1.38h-3.28v8.36H275.3Z"/><path class="cls-1" d="M290.26,92.54v10h-1.54V95.62l-5.94,7.1h-.56v-10h1.54v6.9l5.94-7.12Z"/><path class="cls-1" d="M301,92.76v9.74h-1.54V94.14h-3.62l0,1.2c-.14,4.9-.82,7.24-3.14,7.24a1.66,1.66,0,0,1-.52-.08v-1.3a2.52,2.52,0,0,0,.4,0c1.32,0,1.72-2.22,1.8-5.94l.06-2.54Z"/><path class="cls-1" d="M312.44,92.54v10H310.9V95.62l-5.94,7.1h-.56v-10h1.54v6.9l5.94-7.12Z"/><path class="cls-1" d="M316.18,100.7H318l-.82,5.38h-1.26Z"/><path class="cls-1" d="M10.06,116.76l-4.8,11.1c-.76,1.74-1.82,2.46-3.3,2.46a6.3,6.3,0,0,1-1.5-.2v-1.3a9.28,9.28,0,0,0,1.18.1,2.17,2.17,0,0,0,2.2-1.56l.52-1.16-4-9.44H2l3.22,7.76,3.22-7.76Z"/><path class="cls-1" d="M12.28,116.76h7.78v9.74H18.5v-8.36H13.82v8.36H12.28Z"/><path class="cls-1" d="M30.74,120.5v6H29.3v-1.26A3.92,3.92,0,0,1,26,126.72c-2,0-3.4-1-3.4-2.74s1.38-2.72,3.5-2.72H29.2v-.84A2.19,2.19,0,0,0,26.84,118,3.44,3.44,0,0,0,24,119.52l-1-.84a4.5,4.5,0,0,1,4-2.14C29.16,116.54,30.74,117.88,30.74,120.5Zm-1.54,2.26v-.24H26.3c-1.36,0-2.1.46-2.1,1.38s.94,1.54,2,1.54A2.84,2.84,0,0,0,29.2,122.76Z"/><path class="cls-1" d="M34,116.76h1.54v9.74H34Zm8.2,9.74H40.26l-4.52-5.28,4.1-4.46h1.92l-4.14,4.42Z"/><path class="cls-1" d="M43.3,121.62a5.1,5.1,0,1,1,5.08,5.08A5,5,0,0,1,43.3,121.62Zm8.62,0a3.52,3.52,0,1,0-7,0,3.49,3.49,0,0,0,3.5,3.64A3.53,3.53,0,0,0,51.92,121.64Z"/><path class="cls-1" d="M64.18,123.56c0,1.7-1.32,2.94-3.46,2.94H56.2v-9.74h4c1.92,0,3.14,1,3.14,2.58a2.19,2.19,0,0,1-1,1.88A2.45,2.45,0,0,1,64.18,123.56Zm-6.44-2.82h2.5c1.08,0,1.6-.5,1.6-1.32s-.52-1.28-1.6-1.28h-2.5Zm4.9,2.82c0-.9-.74-1.46-2-1.46H57.74v3h2.88C61.94,125.14,62.64,124.46,62.64,123.56Z"/><path class="cls-1" d="M67.08,116.76h1.54v9.74H67.08Zm8.2,9.74H73.34l-4.52-5.28,4.1-4.46h1.92l-4.14,4.42Z"/><path class="cls-1" d="M85.94,116.76l-4.8,11.1c-.76,1.74-1.82,2.46-3.3,2.46a6.3,6.3,0,0,1-1.5-.2v-1.3a9.28,9.28,0,0,0,1.18.1,2.17,2.17,0,0,0,2.2-1.56l.52-1.16-4-9.44h1.66l3.22,7.76,3.22-7.76Z"/><path class="cls-1" d="M86.6,125.46a1.26,1.26,0,1,1,1.26,1.26A1.24,1.24,0,0,1,86.6,125.46Z"/><path class="cls-1" d="M108.8,113.08V126.5h-1.56V116.26l-8.6,10.46h-.56V113.3h1.56v10.24l8.6-10.46Z"/><path class="cls-1" d="M127.06,125.14v4.18h-1.54V126.5h-7.66v2.82h-1.54v-4.18h1.1c1-1,1.22-3,1.28-5.64l.06-2.74h6.72v8.38Zm-8,0h4.9v-7h-3.72l-.06,1.38C120.1,122.32,119.66,124.26,119,125.14Z"/><path class="cls-1" d="M137.88,122.1h-7.7a3.45,3.45,0,0,0,3.58,3.2,4.1,4.1,0,0,0,3-1.32l.9,1a5.25,5.25,0,0,1-3.9,1.7,5.09,5.09,0,0,1-.18-10.18,4.29,4.29,0,0,1,4.44,4.4A6,6,0,0,1,137.88,122.1Zm-7.64-1.36h6.18a2.74,2.74,0,0,0-2.9-2.8A3.32,3.32,0,0,0,130.24,120.74Z"/><path class="cls-1" d="M148.06,116.76v9.74h-1.54v-8.36H142.9l0,1.2c-.14,4.9-.82,7.24-3.14,7.24a1.66,1.66,0,0,1-.52-.08v-1.3a2.51,2.51,0,0,0,.4,0c1.32,0,1.72-2.22,1.8-5.94l.06-2.54Z"/><path class="cls-1" d="M158.76,120.5v6h-1.44v-1.26a3.92,3.92,0,0,1-3.28,1.48c-2,0-3.4-1-3.4-2.74s1.38-2.72,3.5-2.72h3.08v-.84a2.19,2.19,0,0,0-2.36-2.46,3.44,3.44,0,0,0-2.84,1.56l-1-.84a4.5,4.5,0,0,1,4-2.14C157.18,116.54,158.76,117.88,158.76,120.5Zm-1.54,2.26v-.24h-2.9c-1.36,0-2.1.46-2.1,1.38s.94,1.54,2,1.54A2.84,2.84,0,0,0,157.22,122.76Z"/><path class="cls-1" d="M170.62,122.1h-7.7a3.45,3.45,0,0,0,3.58,3.2,4.1,4.1,0,0,0,3-1.32l.9,1a5.25,5.25,0,0,1-3.9,1.7,5.09,5.09,0,0,1-.18-10.18,4.29,4.29,0,0,1,4.44,4.4A6,6,0,0,1,170.62,122.1ZM163,120.74h6.18a2.74,2.74,0,0,0-2.9-2.8A3.32,3.32,0,0,0,163,120.74Z"/><path class="cls-1" d="M173.44,116.54H174l4.62,5.48,4.6-5.48h.54v10h-1.54v-6.58l-3.32,4h-.6l-3.32-4v6.58h-1.54Z"/><path class="cls-1" d="M198.8,126.5l-2.78-4-2.76,4h-1.8l3.62-5.08-3.32-4.66h1.78l2.48,3.58,2.5-3.58h1.78l-3.38,4.66,3.66,5.08Z"/><path class="cls-1" d="M201.7,121.62a5.1,5.1,0,1,1,5.08,5.08A5,5,0,0,1,201.7,121.62Zm8.62,0a3.52,3.52,0,1,0-7,0,3.49,3.49,0,0,0,3.5,3.64A3.53,3.53,0,0,0,210.32,121.64Z"/><path class="cls-1" d="M224.54,121.62a4.85,4.85,0,0,1-4.82,5.1,4.56,4.56,0,0,1-3.58-1.62v5H214.6V116.76H216v1.56a4.41,4.41,0,0,1,3.68-1.78A4.84,4.84,0,0,1,224.54,121.62Zm-1.58,0A3.47,3.47,0,0,0,219.5,118a3.68,3.68,0,0,0,0,7.34A3.46,3.46,0,0,0,223,121.64Z"/><path class="cls-1" d="M226.54,121.62a5.1,5.1,0,1,1,5.08,5.08A5,5,0,0,1,226.54,121.62Zm8.62,0a3.52,3.52,0,1,0-7,0,3.49,3.49,0,0,0,3.5,3.64A3.53,3.53,0,0,0,235.16,121.64Z"/><path class="cls-1" d="M239.44,116.76H241v8.38h4.08v-8.38h1.54v8.38h4.1v-8.38h1.54v9.74h-12.8Z"/><path class="cls-1" d="M254.92,121.62a5.1,5.1,0,1,1,5.08,5.08A5,5,0,0,1,254.92,121.62Zm8.62,0a3.52,3.52,0,1,0-7,0,3.49,3.49,0,0,0,3.5,3.64A3.53,3.53,0,0,0,263.54,121.64Z"/><path class="cls-1" d="M267.46,125.46a1.26,1.26,0,1,1,1.26,1.26A1.24,1.24,0,0,1,267.46,125.46Z"/><path class="cls-1" d="M19.22,16.63c0,4-3.1,6.75-7.55,6.75H1.44V.42H9.58c4.24,0,7.27,2.61,7.27,6.4A5.58,5.58,0,0,1,15.15,11,5.74,5.74,0,0,1,19.22,16.63ZM6,4.45V9.71H9.2c1.95,0,3-1.08,3-2.64s-1-2.61-3-2.61Zm8.63,12c0-1.77-1.22-2.89-3.27-2.89H6v5.78h5.36C13.38,19.34,14.59,18.26,14.59,16.46Z"/><path class="cls-1" d="M37.73,11.9A11.91,11.91,0,0,1,49.91,0,12,12,0,0,1,62.16,11.9,12,12,0,0,1,49.91,23.8,11.91,11.91,0,0,1,37.73,11.9Zm19.59,0a7.38,7.38,0,1,0-14.75,0,7.38,7.38,0,1,0,14.75,0Z"/><path class="cls-1" d="M98,16.59c0,4.31-3.41,7.2-8.73,7.2a9.82,9.82,0,0,1-9-5.32l3.27-2.37a6.67,6.67,0,0,0,5.74,3.34c2.26,0,4.14-1.11,4.14-3.1,0-1.6-1.18-2.78-3.72-2.78h-3V9.71H89.3c2,0,3.06-1.15,3.06-2.64s-1.15-2.71-3.24-2.71a5.27,5.27,0,0,0-4.77,3L81.09,5a8.78,8.78,0,0,1,8.28-5C94,0,97,2.54,97,6.68a5.75,5.75,0,0,1-2.3,4.63A5.66,5.66,0,0,1,98,16.59Z"/><path class="cls-1" d="M139.58,19.13v9.15h-4.7V23.38h-14.3v4.91h-4.7V19.13h1.84c2-1.67,2.82-6.51,2.82-14.92V.42h16V19.13Zm-16.73,0h9V4.66H125C124.9,11.65,124.27,16.39,122.84,19.13Z"/><path class="cls-1" d="M178,.42,170.16,17.6c-1.77,3.83-3.37,6.16-7.58,6.16a8.76,8.76,0,0,1-2.61-.38v-4a16.92,16.92,0,0,0,1.84.1A3.8,3.8,0,0,0,165,18L156.49.42h5.25l5.84,12.49L173,.42Z"/><path class="cls-1" d="M210,23.38l-4.87-7.62-4.87,7.62H194.9l7.62-11.69L195.36.42h5.36l4.42,7.24L209.51.42h5.32l-7.06,11.27,7.55,11.69Z"/></g></g></svg>