<svg xmlns="http://www.w3.org/2000/svg" viewBox="0 0 38.42 49.62"><defs><style>.cls-1{fill:#fff;}</style></defs><title>Ресурс 2</title><g id="Слой_2" data-name="Слой 2"><g id="Слой_1-2" data-name="Слой 1"><path class="cls-1" d="M38.42,35c0,8.57-6.69,14.58-16.31,14.58H0V0H17.59C26.76,0,33.3,5.64,33.3,13.83a12.06,12.06,0,0,1-3.68,8.95C35,24.73,38.42,28.94,38.42,35ZM9.77,8.72V20.07h7c4.21,0,6.47-2.33,6.47-5.71S21,8.72,16.77,8.72ZM28.42,34.66c0-3.83-2.63-6.24-7.07-6.24H9.77V40.9H21.35C25.79,40.9,28.42,38.57,28.42,34.66Z"/></g></g></svg>