<svg xmlns="http://www.w3.org/2000/svg" viewBox="0 0 38.42 51.42"><defs><style>.cls-1{fill:#fff;}</style></defs><title>Ресурс 3</title><g id="Слой_2" data-name="Слой 2"><g id="Слой_1-2" data-name="Слой 1"><path class="cls-1" d="M38.42,35.86c0,9.32-7.37,15.56-18.87,15.56-9,0-16-4.59-19.55-11.5l7.07-5.11C10.3,39.69,14.51,42,19.47,42s8.95-2.41,8.95-6.69c0-3.46-2.56-6-8-6H13.83V21h5.79c4.36,0,6.62-2.48,6.62-5.71,0-3.46-2.48-5.86-7-5.86-4.29,0-7.74,2-10.3,6.47l-7.07-5C5.19,4.13,11.35,0,19.77,0,29.85,0,36.24,5.49,36.24,14.43a12.43,12.43,0,0,1-5,10A12.23,12.23,0,0,1,38.42,35.86Z"/></g></g></svg>