<svg width="350" height="131" viewBox="0 0 350 131" fill="none" xmlns="http://www.w3.org/2000/svg">
<g clip-path="url(#clip0)">
<path d="M0.799805 47.5601H18.7998V48.8601H0.799805V47.5601Z" fill="white"/>
<path d="M27.1001 44.7603H28.6401V48.6403H33.4201V44.7603H35.0001V54.5003H33.4201V50.0003H28.6401V54.5003H27.1001V44.7603Z" fill="white"/>
<path d="M46.94 50.1002H39.24C39.3042 50.9941 39.7137 51.828 40.3819 52.4252C41.0501 53.0225 41.9245 53.3363 42.82 53.3002C43.3839 53.2984 43.9414 53.1802 44.4576 52.953C44.9738 52.7259 45.4376 52.3947 45.82 51.9802L46.72 52.9802C46.2245 53.5201 45.6216 53.9502 44.9499 54.243C44.2782 54.5358 43.5527 54.6847 42.82 54.6802C42.1515 54.6921 41.4873 54.5721 40.8652 54.3272C40.2432 54.0823 39.6754 53.7173 39.1944 53.253C38.7134 52.7888 38.3286 52.2343 38.0618 51.6212C37.7951 51.0082 37.6518 50.3487 37.64 49.6802C37.6281 49.0118 37.7481 48.3476 37.993 47.7255C38.2378 47.1035 38.6029 46.5357 39.0671 46.0547C39.5314 45.5737 40.0859 45.1888 40.699 44.9221C41.312 44.6554 41.9715 44.5121 42.64 44.5002C43.2252 44.4796 43.8085 44.5789 44.3539 44.7922C44.8993 45.0055 45.3952 45.3282 45.8112 45.7404C46.2271 46.1526 46.5543 46.6456 46.7725 47.189C46.9907 47.7325 47.0953 48.3148 47.08 48.9002C47.0738 49.3039 47.0269 49.706 46.94 50.1002V50.1002ZM39.3 48.7402H45.48C45.4889 48.3615 45.4192 47.9851 45.2753 47.6347C45.1314 47.2842 44.9164 46.9675 44.6439 46.7044C44.3714 46.4412 44.0473 46.2375 43.692 46.106C43.3368 45.9744 42.9581 45.918 42.58 45.9402C41.7894 45.94 41.0247 46.2219 40.4234 46.7352C39.8222 47.2484 39.4238 47.9594 39.3 48.7402V48.7402Z" fill="white"/>
<path d="M59.3598 49.8003C59.3335 51.1229 58.7841 52.3812 57.832 53.2996C56.8798 54.2181 55.6025 54.7217 54.2798 54.7003C51.2798 54.7003 49.2798 52.4603 49.2798 49.2203V47.5203C49.2798 43.4603 50.1398 40.9403 55.2798 40.0603C56.3957 39.9066 57.4941 39.6454 58.5598 39.2803V40.7603C57.5579 41.1198 56.5176 41.3614 55.4598 41.4803C51.0398 42.1203 50.7798 44.2803 50.7798 46.8603C51.1882 46.2427 51.7439 45.7364 52.3968 45.3873C53.0498 45.0381 53.7794 44.857 54.5198 44.8603C55.162 44.8668 55.7966 44.9998 56.3873 45.2516C56.9781 45.5034 57.5135 45.8691 57.963 46.3278C58.4124 46.7865 58.7671 47.3293 59.0068 47.9251C59.2464 48.5209 59.3664 49.1581 59.3598 49.8003V49.8003ZM57.7798 49.8003C57.7798 49.112 57.5757 48.4392 57.1933 47.8669C56.8109 47.2946 56.2674 46.8486 55.6315 46.5852C54.9956 46.3218 54.2959 46.2529 53.6209 46.3871C52.9458 46.5214 52.3257 46.8529 51.8391 47.3395C51.3524 47.8262 51.0209 48.4463 50.8867 49.1214C50.7524 49.7964 50.8213 50.4961 51.0847 51.132C51.3481 51.7679 51.7941 52.3114 52.3664 52.6938C52.9387 53.0762 53.6115 53.2803 54.2998 53.2803C54.7575 53.2829 55.2112 53.1947 55.6347 53.0208C56.0581 52.8468 56.4428 52.5906 56.7664 52.2669C57.0901 51.9432 57.3463 51.5586 57.5203 51.1351C57.6942 50.7117 57.7824 50.258 57.7798 49.8003V49.8003Z" fill="white"/>
<path d="M61.36 49.6205C61.3561 48.6101 61.6523 47.6213 62.2112 46.7795C62.7701 45.9378 63.5664 45.281 64.4991 44.8925C65.4318 44.5041 66.4589 44.4014 67.4501 44.5975C68.4412 44.7937 69.3518 45.2798 70.0662 45.9942C70.7807 46.7087 71.2668 47.6193 71.463 48.6104C71.6591 49.6016 71.5564 50.6287 71.1679 51.5614C70.7795 52.4941 70.1227 53.2904 69.2809 53.8493C68.4392 54.4082 67.4504 54.7044 66.44 54.7005C65.7699 54.7113 65.1045 54.5873 64.4833 54.3358C63.8621 54.0843 63.2977 53.7105 62.8238 53.2366C62.3499 52.7627 61.9762 52.1984 61.7247 51.5772C61.4732 50.956 61.3492 50.2905 61.36 49.6205V49.6205ZM69.98 49.6205C70.0326 49.1294 69.9812 48.6328 69.8293 48.1629C69.6774 47.693 69.4283 47.2603 69.0982 46.8929C68.7681 46.5256 68.3644 46.2319 67.9133 46.0308C67.4622 45.8297 66.9739 45.7258 66.48 45.7258C65.9862 45.7258 65.4978 45.8297 65.0468 46.0308C64.5957 46.2319 64.192 46.5256 63.8619 46.8929C63.5318 47.2603 63.2827 47.693 63.1307 48.1629C62.9788 48.6328 62.9275 49.1294 62.98 49.6205C62.9597 50.0921 63.0353 50.5629 63.2022 51.0045C63.3691 51.446 63.6239 51.8492 63.9511 52.1894C64.2783 52.5297 64.6711 52.8001 65.1058 52.9842C65.5405 53.1682 66.008 53.2622 66.48 53.2605C66.9504 53.2593 67.4158 53.1641 67.8489 52.9805C68.282 52.7969 68.674 52.5286 69.002 52.1914C69.3299 51.8541 69.5871 51.4547 69.7585 51.0167C69.9299 50.5786 70.012 50.1107 70 49.6405L69.98 49.6205Z" fill="white"/>
<path d="M81.6198 44.7603V54.5003H80.0798V46.1403H76.4598V47.3403C76.3198 52.2403 75.6398 54.5803 73.3198 54.5803C73.1433 54.5814 72.9678 54.5544 72.7998 54.5003V53.2003C72.9329 53.2109 73.0667 53.2109 73.1998 53.2003C74.5198 53.2003 74.9198 50.9803 74.9998 47.2603V44.7603H81.6198Z" fill="white"/>
<path d="M85 44.7603H86.54V48.1203H88.86C91.08 48.1203 92.5 49.4003 92.5 51.3003C92.5 53.2003 91.08 54.5003 88.86 54.5003H85V44.7603ZM88.78 53.1403C90.16 53.1403 90.92 52.4003 90.92 51.3203C90.92 50.2403 90.14 49.4803 88.76 49.4803H86.56V53.1403H88.78Z" fill="white"/>
<path d="M95.2202 44.7603H96.7602V53.1403H100.84V44.7603H102.38V53.1403H106.48V44.7603H108V54.5003H95.2202V44.7603Z" fill="white"/>
<path d="M118.7 48.5002V54.5002H117.26V53.2402C116.873 53.728 116.376 54.1167 115.809 54.3741C115.242 54.6315 114.622 54.7501 114 54.7202C112 54.7202 110.6 53.7202 110.6 51.9802C110.6 50.2402 111.98 49.2602 114.1 49.2602H117.18V48.4202C117.216 48.0972 117.179 47.7703 117.072 47.4633C116.966 47.1563 116.792 46.8768 116.565 46.6451C116.337 46.4135 116.06 46.2354 115.755 46.1238C115.45 46.0123 115.124 45.9701 114.8 46.0002C114.245 46.009 113.701 46.1518 113.214 46.4165C112.726 46.6812 112.31 47.0598 112 47.5202L111 46.6802C111.418 46.0012 112.008 45.4453 112.711 45.0693C113.414 44.6933 114.204 44.5107 115 44.5402C117.12 44.5402 118.7 45.8802 118.7 48.5002ZM117.16 50.7602V50.5202H114.26C112.9 50.5202 112.16 50.9802 112.16 51.9002C112.16 52.8202 113.1 53.4402 114.16 53.4402C114.533 53.4618 114.907 53.4096 115.26 53.2865C115.613 53.1634 115.938 52.9719 116.216 52.7229C116.495 52.4739 116.722 52.1724 116.884 51.8356C117.046 51.4988 117.14 51.1333 117.16 50.7602V50.7602Z" fill="white"/>
<path d="M129.06 44.7603V54.5003H127.52V50.9403H125.68L123 54.5003H121.2L124 50.7403C123.348 50.5968 122.765 50.2351 122.347 49.715C121.929 49.1949 121.701 48.5476 121.7 47.8803C121.7 45.9803 123.06 44.7603 125.14 44.7603H129.06ZM127.52 46.1403H125.28C124.06 46.1403 123.28 46.7803 123.28 47.8603C123.28 48.1107 123.334 48.3582 123.439 48.5858C123.543 48.8134 123.696 49.0157 123.886 49.179C124.076 49.3423 124.298 49.4627 124.539 49.532C124.78 49.6012 125.033 49.6177 125.28 49.5803H127.5L127.52 46.1403Z" fill="white"/>
<path d="M146.62 44.7603L141.82 55.8603C141.06 57.6003 140 58.3203 138.52 58.3203C138.014 58.3141 137.51 58.2469 137.02 58.1203V56.8203C137.411 56.8787 137.805 56.9121 138.2 56.9203C138.689 56.9466 139.172 56.8067 139.572 56.5235C139.971 56.2403 140.263 55.8303 140.4 55.3603L140.92 54.2003L136.92 44.7603H138.58L141.8 52.5203L145 44.7603H146.62Z" fill="white"/>
<path d="M162.12 49.6201C162.13 50.2834 162.009 50.9422 161.762 51.5581C161.516 52.174 161.149 52.7346 160.684 53.2074C160.219 53.6802 159.664 54.0557 159.052 54.312C158.44 54.5682 157.783 54.7002 157.12 54.7001C155.844 54.7024 154.616 54.217 153.686 53.3432C152.757 52.4695 152.196 51.2735 152.12 50.0001H150.36V54.5001H148.82V44.7601H150.36V48.6401H152.18C152.39 47.4889 152.998 46.4482 153.897 45.699C154.796 44.9498 155.93 44.5397 157.1 44.5401C157.765 44.5373 158.424 44.6673 159.038 44.9224C159.652 45.1774 160.209 45.5525 160.677 46.0256C161.144 46.4986 161.513 47.0602 161.761 47.6774C162.008 48.2946 162.13 48.9551 162.12 49.6201ZM160.54 49.6201C160.556 49.1571 160.48 48.6956 160.316 48.2622C160.152 47.8289 159.904 47.4324 159.586 47.0956C159.268 46.7589 158.886 46.4887 158.463 46.3006C158.039 46.1125 157.583 46.0104 157.12 46.0001C156.386 45.95 155.654 46.1216 155.018 46.4928C154.383 46.8639 153.874 47.4175 153.557 48.0815C153.241 48.7456 153.131 49.4895 153.242 50.2167C153.353 50.944 153.681 51.621 154.182 52.1599C154.682 52.6989 155.334 53.0748 156.051 53.239C156.768 53.4032 157.518 53.348 158.203 53.0807C158.889 52.8134 159.478 52.3462 159.895 51.7398C160.311 51.1334 160.536 50.4158 160.54 49.6801V49.6201Z" fill="white"/>
<path d="M166.64 46.1403H163.36V44.7603H171.44V46.1403H168.16V54.5003H166.64V46.1403Z" fill="white"/>
<path d="M173.56 44.7603H175.1V48.6403H179.88V44.7603H181.42V54.5003H179.88V50.0003H175.1V54.5003H173.56V44.7603Z" fill="white"/>
<path d="M192.1 48.5002V54.5002H190.66V53.2402C190.271 53.7309 189.77 54.1213 189.2 54.3788C188.629 54.6363 188.005 54.7534 187.38 54.7202C185.38 54.7202 183.98 53.7202 183.98 51.9802C183.98 50.2402 185.36 49.2602 187.48 49.2602H190.56V48.4202C190.595 48.0991 190.559 47.7741 190.453 47.4687C190.348 47.1632 190.176 46.8849 189.951 46.6536C189.725 46.4223 189.451 46.2437 189.149 46.1308C188.846 46.0178 188.522 45.9732 188.2 46.0002C187.635 46.007 187.08 46.1528 186.585 46.4249C186.089 46.697 185.669 47.0869 185.36 47.5602L184.36 46.7202C184.777 46.0412 185.368 45.4853 186.071 45.1093C186.773 44.7333 187.563 44.5507 188.36 44.5802C190.52 44.5402 192.1 45.8802 192.1 48.5002ZM190.56 50.7602V50.5202H187.66C186.3 50.5202 185.56 50.9802 185.56 51.9002C185.56 52.8202 186.5 53.4402 187.56 53.4402C187.933 53.4618 188.307 53.4096 188.66 53.2865C189.012 53.1634 189.338 52.9719 189.616 52.7229C189.895 52.474 190.122 52.1724 190.284 51.8356C190.446 51.4988 190.54 51.1334 190.56 50.7602V50.7602Z" fill="white"/>
<path d="M202.46 44.7603V54.5003H200.92V50.9403H199.08L196.4 54.5003H194.6L197.44 50.7403C196.788 50.5968 196.205 50.2351 195.787 49.715C195.369 49.1949 195.14 48.5476 195.14 47.8803C195.14 45.9803 196.5 44.7603 198.58 44.7603H202.46ZM200.92 46.1403H198.68C197.46 46.1403 196.68 46.7803 196.68 47.8603C196.68 48.1107 196.734 48.3582 196.839 48.5858C196.943 48.8134 197.096 49.0157 197.286 49.179C197.475 49.3423 197.698 49.4627 197.939 49.532C198.18 49.6012 198.432 49.6177 198.68 49.5803H200.9L200.92 46.1403Z" fill="white"/>
<path d="M220.6 53.1403V57.3203H219.06V54.5003H211.4V57.3203H209.86V53.1403H211C212 52.1403 212.22 50.1403 212.28 47.5003L212.34 44.7603H219V53.1403H220.6ZM212.6 53.1403H217.5V46.1403H213.78L213.72 47.5203C213.64 50.3203 213.2 52.2603 212.58 53.1403H212.6Z" fill="white"/>
<path d="M231.06 44.54V54.54H229.52V47.62L223.58 54.72H223V44.72H224.54V51.62L230.48 44.5L231.06 44.54Z" fill="white"/>
<path d="M241.06 51.7003C241.06 53.5403 239.58 54.7003 237.38 54.7003C236.65 54.7177 235.928 54.5554 235.275 54.2275C234.623 53.8997 234.062 53.4164 233.64 52.8203L234.64 51.9003C234.937 52.3347 235.338 52.6883 235.806 52.9292C236.273 53.1702 236.794 53.2908 237.32 53.2803C238.7 53.2803 239.44 52.5803 239.44 51.5803C239.44 50.5803 238.74 50.0003 237.32 50.0003H236.3V48.6603H237.3C238.46 48.6603 239 48.1203 239 47.3003C239 46.4803 238.44 46.0003 237.3 46.0003C236.827 45.9874 236.357 46.0899 235.932 46.299C235.507 46.508 235.139 46.8174 234.86 47.2003L233.86 46.2803C234.267 45.7299 234.802 45.2874 235.419 44.9911C236.036 44.6948 236.716 44.5538 237.4 44.5803C239.34 44.5803 240.6 45.5803 240.6 47.2403C240.61 47.6617 240.508 48.0782 240.304 48.4472C240.1 48.8161 239.802 49.1243 239.44 49.3403C239.919 49.5205 240.332 49.8434 240.621 50.2655C240.911 50.6876 241.064 51.1884 241.06 51.7003V51.7003Z" fill="white"/>
<path d="M251.1 48.5002V54.5002H249.66V53.2402C249.271 53.7309 248.77 54.1213 248.2 54.3788C247.629 54.6363 247.005 54.7534 246.38 54.7202C244.38 54.7202 242.98 53.7202 242.98 51.9802C242.98 50.2402 244.36 49.2602 246.48 49.2602H249.56V48.4202C249.595 48.0991 249.559 47.7741 249.453 47.4687C249.348 47.1632 249.176 46.8849 248.951 46.6536C248.725 46.4223 248.451 46.2437 248.149 46.1308C247.846 46.0178 247.522 45.9732 247.2 46.0002C246.635 46.007 246.08 46.1528 245.585 46.4249C245.089 46.697 244.669 47.0869 244.36 47.5602L243.36 46.7202C243.777 46.0412 244.368 45.4853 245.071 45.1093C245.773 44.7333 246.563 44.5507 247.36 44.5802C249.52 44.5402 251.1 45.8802 251.1 48.5002ZM249.56 50.7602V50.5202H246.66C245.3 50.5202 244.56 50.9802 244.56 51.9002C244.56 52.8202 245.5 53.4402 246.56 53.4402C246.933 53.4618 247.307 53.4096 247.66 53.2865C248.012 53.1634 248.338 52.9719 248.616 52.7229C248.895 52.474 249.122 52.1724 249.284 51.8356C249.446 51.4988 249.54 51.1334 249.56 50.7602Z" fill="white"/>
<path d="M262.4 44.5403V54.5403H260.86V47.6203L254.92 54.7203H254.36V44.7203H255.9V51.6203L261.84 44.5003L262.4 44.5403ZM255.58 39.8803V39.2603H256.88V39.8403C256.88 41.1403 257.52 41.8403 258.6 41.8403C259.68 41.8403 260.34 41.1003 260.34 39.8403V39.2603H261.64V39.8803C261.64 40.6839 261.321 41.4546 260.752 42.0228C260.184 42.591 259.413 42.9103 258.61 42.9103C257.806 42.9103 257.036 42.591 256.467 42.0228C255.899 41.4546 255.58 40.6839 255.58 39.8803V39.8803Z" fill="white"/>
<path d="M265.78 44.7603H267.32V48.6403H272.1V44.7603H273.64V54.5003H272.1V50.0003H267.32V54.5003H265.78V44.7603Z" fill="white"/>
<path d="M279.38 47.5601H284.16V48.8601H279.38V47.5601Z" fill="white"/>
<path d="M288.84 49.6204C288.836 48.9505 288.965 48.2865 289.22 47.667C289.476 47.0476 289.851 46.4851 290.326 46.0123C290.801 45.5395 291.365 45.1659 291.985 44.9132C292.606 44.6605 293.27 44.5338 293.94 44.5404C294.731 44.5303 295.512 44.7191 296.211 45.0896C296.91 45.46 297.504 46.0002 297.94 46.6604L296.84 47.5404C296.393 46.8968 295.752 46.4128 295.01 46.1589C294.269 45.905 293.466 45.8944 292.718 46.1288C291.97 46.3631 291.316 46.8301 290.852 47.4618C290.388 48.0934 290.138 48.8567 290.138 49.6404C290.138 50.4242 290.388 51.1875 290.852 51.8191C291.316 52.4507 291.97 52.9177 292.718 53.1521C293.466 53.3864 294.269 53.3759 295.01 53.122C295.752 52.868 296.393 52.384 296.84 51.7404L297.94 52.6004C297.505 53.2613 296.91 53.802 296.211 54.1725C295.512 54.543 294.731 54.7315 293.94 54.7204C293.269 54.7258 292.603 54.5975 291.982 54.3431C291.361 54.0886 290.797 53.7132 290.322 53.2385C289.847 52.7639 289.472 52.1996 289.217 51.5784C288.963 50.9572 288.835 50.2917 288.84 49.6204V49.6204Z" fill="white"/>
<path d="M302.54 46.1403H299.26V44.7603H307.34V46.1403H304.06V54.5003H302.54V46.1403Z" fill="white"/>
<path d="M318.12 44.7603L313.32 55.8603C312.56 57.6003 311.5 58.3203 310.02 58.3203C309.514 58.3141 309.01 58.2469 308.52 58.1203V56.8203C308.911 56.8787 309.305 56.9121 309.7 56.9203C310.189 56.9466 310.672 56.8067 311.072 56.5235C311.471 56.2403 311.763 55.8303 311.9 55.3603L312.42 54.2003L308.42 44.7603H310L313.22 52.5203L316.44 44.7603H318.12Z" fill="white"/>
<path d="M328.52 53.1403V57.3203H327V54.5003H319.34V57.3203H317.8V53.1403H318.9C319.9 52.1403 320.12 50.1403 320.18 47.5003L320.24 44.7603H326.96V53.1403H328.52ZM320.52 53.1403H325.42V46.1403H321.7L321.64 47.5203C321.56 50.3203 321.12 52.2603 320.5 53.1403H320.52Z" fill="white"/>
<path d="M339 44.54V54.54H337.46V47.62L331.52 54.72H330.96V44.72H332.5V51.62L338.44 44.5L339 44.54Z" fill="white"/>
<path d="M349.46 44.7603V54.5003H347.92V50.9403H346.08L343.4 54.5003H341.6L344.44 50.7403C343.788 50.5968 343.205 50.2351 342.787 49.715C342.369 49.1949 342.14 48.5476 342.14 47.8803C342.14 45.9803 343.5 44.7603 345.58 44.7603H349.46ZM347.92 46.1403H345.68C344.46 46.1403 343.68 46.7803 343.68 47.8603C343.68 48.1107 343.734 48.3582 343.839 48.5858C343.943 48.8134 344.096 49.0157 344.286 49.179C344.475 49.3423 344.698 49.4627 344.939 49.532C345.18 49.6012 345.432 49.6177 345.68 49.5803H347.9L347.92 46.1403Z" fill="white"/>
<path d="M9.54 68.54V78.54H8V71.62L2.06 78.72H1.5V68.72H3V75.62L9 68.54H9.54Z" fill="white"/>
<path d="M19.5401 75.7003C19.5401 77.5403 18.0601 78.7003 15.8601 78.7003C15.1303 78.7177 14.4075 78.5554 13.7553 78.2275C13.103 77.8997 12.5415 77.4164 12.1201 76.8203L13.1201 75.9003C13.4172 76.3347 13.8177 76.6883 14.2856 76.9292C14.7535 77.1702 15.274 77.2908 15.8001 77.2803C17.1801 77.2803 17.9201 76.5803 17.9201 75.5803C17.9201 74.5803 17.2601 74.0003 15.8401 74.0003H14.7801V72.6603H15.7801C16.9401 72.6603 17.4801 72.1203 17.4801 71.3003C17.4801 70.4803 16.9201 70.0003 15.7801 70.0003C15.3066 69.9874 14.837 70.0899 14.4119 70.299C13.9868 70.508 13.619 70.8174 13.3401 71.2003L12.3401 70.2803C12.747 69.7299 13.2822 69.2874 13.8992 68.9911C14.5162 68.6948 15.1962 68.5538 15.8801 68.5803C17.8201 68.5803 19.0801 69.5803 19.0801 71.2403C19.09 71.6617 18.9879 72.0782 18.7841 72.4472C18.5803 72.8161 18.2821 73.1243 17.9201 73.3403C18.3993 73.5205 18.8116 73.8434 19.1013 74.2655C19.391 74.6876 19.5442 75.1884 19.5401 75.7003V75.7003Z" fill="white"/>
<path d="M28 65.3003H29.56V70.7403H37V65.3003H38.56V78.5003H37V72.1403H29.6V78.5003H28V65.3003Z" fill="white"/>
<path d="M49.9999 68.54V78.54H48.4399V71.62L42.4999 78.72H41.9399V68.72H43.4799V75.62L49.4199 68.5L49.9999 68.54Z" fill="white"/>
<path d="M54.3601 68.7603L58.3601 73.2203L53.9401 78.5003H52.0601L56.5201 73.2203L52.4401 68.7603H54.3601ZM58.5801 68.7603H60.1201V78.5003H58.5801V68.7603ZM66.6801 78.5003H64.7601L60.3201 73.2203L64.3201 68.7603H66.2201L62.2201 73.1803L66.6801 78.5003Z" fill="white"/>
<path d="M68.7998 68.7603H70.3398V72.6403H75.1198V68.7603H76.6598V78.5003H75.1198V74.0003H70.3398V78.5003H68.7998V68.7603Z" fill="white"/>
<path d="M88.6401 74.1002H80.9402C81.0044 74.9941 81.4139 75.828 82.0821 76.4252C82.7503 77.0225 83.6247 77.3363 84.5201 77.3002C85.0841 77.2984 85.6416 77.1802 86.1578 76.953C86.674 76.7259 87.1378 76.3948 87.5201 75.9802L88.4201 76.9802C87.9247 77.5201 87.3217 77.9502 86.6501 78.243C85.9784 78.5358 85.2529 78.6847 84.5201 78.6802C83.1702 78.7041 81.866 78.1907 80.8946 77.253C79.9232 76.3154 79.364 75.0302 79.3402 73.6802C79.3163 72.3303 79.8297 71.0261 80.7673 70.0547C81.705 69.0833 82.9902 68.5241 84.3401 68.5002C84.9254 68.4796 85.5087 68.5789 86.0541 68.7922C86.5995 69.0055 87.0954 69.3282 87.5114 69.7404C87.9273 70.1526 88.2545 70.6456 88.4727 71.189C88.6909 71.7325 88.7955 72.3148 88.7801 72.9002C88.774 73.3039 88.7271 73.706 88.6401 74.1002ZM81.0001 72.7402H87.1801C87.1891 72.3615 87.1194 71.9851 86.9755 71.6347C86.8316 71.2842 86.6166 70.9675 86.3441 70.7044C86.0716 70.4412 85.7475 70.2375 85.3922 70.106C85.037 69.9744 84.6583 69.918 84.2801 69.9402C83.4896 69.94 82.7249 70.2219 82.1236 70.7352C81.5224 71.2484 81.124 71.9594 81.0001 72.7402Z" fill="white"/>
<path d="M91.46 68.7603H98V70.1403H93V78.5003H91.46V68.7603Z" fill="white"/>
<path d="M99.0002 73.6205C98.9962 72.6101 99.2925 71.6213 99.8513 70.7795C100.41 69.9378 101.207 69.281 102.139 68.8925C103.072 68.5041 104.099 68.4014 105.09 68.5975C106.081 68.7937 106.992 69.2798 107.706 69.9943C108.421 70.7087 108.907 71.6193 109.103 72.6104C109.299 73.6016 109.197 74.6287 108.808 75.5614C108.42 76.4941 107.763 77.2904 106.921 77.8493C106.079 78.4082 105.091 78.7044 104.08 78.7004C103.41 78.7113 102.745 78.5872 102.123 78.3358C101.502 78.0843 100.938 77.7105 100.464 77.2366C99.9901 76.7627 99.6163 76.1984 99.3648 75.5772C99.1134 74.956 98.9894 74.2906 99.0002 73.6205V73.6205ZM107.62 73.6205C107.673 73.1294 107.621 72.6328 107.469 72.1629C107.318 71.6929 107.068 71.2603 106.738 70.8929C106.408 70.5256 106.004 70.2319 105.553 70.0308C105.102 69.8297 104.614 69.7258 104.12 69.7258C103.626 69.7258 103.138 69.8297 102.687 70.0308C102.236 70.2319 101.832 70.5256 101.502 70.8929C101.172 71.2603 100.923 71.6929 100.771 72.1629C100.619 72.6328 100.568 73.1294 100.62 73.6205C100.6 74.0921 100.675 74.5629 100.842 75.0045C101.009 75.446 101.264 75.8492 101.591 76.1894C101.918 76.5297 102.311 76.8001 102.746 76.9842C103.181 77.1682 103.648 77.2622 104.12 77.2605C104.591 77.2593 105.056 77.1641 105.489 76.9805C105.922 76.7969 106.314 76.5286 106.642 76.1913C106.97 75.8541 107.227 75.4547 107.399 75.0167C107.57 74.5786 107.652 74.1107 107.64 73.6405L107.62 73.6205Z" fill="white"/>
<path d="M117.64 65.3003H119.2V70.7403H126.6V65.3003H128.16V78.5003H126.6V72.1403H119.2V78.5003H117.64V65.3003Z" fill="white"/>
<path d="M130.88 73.6202C130.878 72.612 131.175 71.6257 131.734 70.7862C132.292 69.9466 133.086 69.2914 134.017 68.9033C134.948 68.5151 135.972 68.4116 136.962 68.6056C137.951 68.7996 138.861 69.2826 139.576 69.9934C140.291 70.7043 140.779 71.6111 140.979 72.5994C141.179 73.5876 141.081 74.6129 140.699 75.5458C140.316 76.4786 139.665 77.2771 138.829 77.8403C137.993 78.4035 137.008 78.7063 136 78.7102C135.326 78.7265 134.655 78.6062 134.029 78.3566C133.402 78.1069 132.833 77.7331 132.354 77.2576C131.876 76.7821 131.499 76.2147 131.245 75.5896C130.992 74.9645 130.868 74.2946 130.88 73.6202ZM139.5 73.6202C139.553 73.1292 139.501 72.6325 139.35 72.1626C139.198 71.6927 138.948 71.26 138.618 70.8927C138.288 70.5254 137.885 70.2316 137.433 70.0305C136.982 69.8294 136.494 69.7255 136 69.7255C135.506 69.7255 135.018 69.8294 134.567 70.0305C134.116 70.2316 133.712 70.5254 133.382 70.8927C133.052 71.26 132.803 71.6927 132.651 72.1626C132.499 72.6325 132.448 73.1292 132.5 73.6202C132.48 74.0918 132.556 74.5627 132.722 75.0042C132.889 75.4458 133.144 75.8489 133.471 76.1892C133.798 76.5295 134.191 76.7998 134.626 76.9839C135.061 77.168 135.528 77.262 136 77.2602C136.469 77.2564 136.932 77.1593 137.363 76.9745C137.794 76.7897 138.183 76.521 138.509 76.184C138.835 75.847 139.09 75.4485 139.261 75.0118C139.431 74.575 139.512 74.1088 139.5 73.6402V73.6202Z" fill="white"/>
<path d="M151.76 75.5602C151.76 77.2602 150.44 78.5003 148.3 78.5003H143.78V68.7603H147.78C149.7 68.7603 150.92 69.7602 150.92 71.3402C150.927 71.7128 150.839 72.081 150.664 72.41C150.489 72.739 150.233 73.0178 149.92 73.2203C150.441 73.3542 150.903 73.6559 151.236 74.0788C151.568 74.5017 151.753 75.0223 151.76 75.5602V75.5602ZM145.32 72.7402H147.82C148.9 72.7402 149.42 72.2402 149.42 71.4202C149.42 70.6002 148.9 70.1403 147.82 70.1403H145.32V72.7402ZM150.22 75.5602C150.22 74.6602 149.48 74.1003 148.22 74.1003H145.34V77.1003H148.22C149.52 77.1403 150.22 76.4602 150.22 75.5602Z" fill="white"/>
<path d="M154.66 68.7603H161.22V70.1403H156.22V78.5003H154.68L154.66 68.7603Z" fill="white"/>
<path d="M162.22 73.6205C162.216 72.6101 162.512 71.6213 163.071 70.7795C163.63 69.9378 164.426 69.281 165.359 68.8925C166.292 68.5041 167.319 68.4014 168.31 68.5975C169.301 68.7937 170.212 69.2798 170.926 69.9943C171.641 70.7087 172.127 71.6193 172.323 72.6104C172.519 73.6016 172.416 74.6287 172.028 75.5614C171.639 76.4941 170.983 77.2904 170.141 77.8493C169.299 78.4082 168.31 78.7044 167.3 78.7004C166.63 78.7113 165.964 78.5872 165.343 78.3358C164.722 78.0843 164.158 77.7105 163.684 77.2366C163.21 76.7627 162.836 76.1984 162.585 75.5772C162.333 74.956 162.209 74.2906 162.22 73.6205V73.6205ZM170.84 73.6205C170.892 73.1294 170.841 72.6328 170.689 72.1629C170.537 71.6929 170.288 71.2603 169.958 70.8929C169.628 70.5256 169.224 70.2319 168.773 70.0308C168.322 69.8297 167.834 69.7258 167.34 69.7258C166.846 69.7258 166.358 69.8297 165.907 70.0308C165.456 70.2319 165.052 70.5256 164.722 70.8929C164.392 71.2603 164.143 71.6929 163.991 72.1629C163.839 72.6328 163.787 73.1294 163.84 73.6205C163.82 74.0921 163.895 74.5629 164.062 75.0045C164.229 75.446 164.484 75.8492 164.811 76.1894C165.138 76.5297 165.531 76.8001 165.966 76.9842C166.4 77.1682 166.868 77.2622 167.34 77.2605C167.809 77.2566 168.272 77.1595 168.703 76.9747C169.133 76.7899 169.523 76.5212 169.849 76.1842C170.175 75.8473 170.43 75.4488 170.6 75.012C170.77 74.5753 170.852 74.109 170.84 73.6405V73.6205Z" fill="white"/>
<path d="M185.06 73.6203C185.094 74.2754 184.995 74.9305 184.768 75.5461C184.541 76.1617 184.192 76.7249 183.741 77.2017C183.291 77.6784 182.748 78.0588 182.146 78.3198C181.545 78.5809 180.896 78.7171 180.24 78.7203C179.56 78.7342 178.886 78.596 178.267 78.3157C177.647 78.0354 177.098 77.6201 176.66 77.1003V82.1003H175.12V68.7603H176.56V70.3203C176.984 69.7486 177.541 69.2881 178.181 68.9781C178.822 68.6681 179.529 68.5179 180.24 68.5403C180.895 68.5422 181.542 68.6768 182.143 68.9361C182.744 69.1954 183.287 69.574 183.737 70.0489C184.188 70.5238 184.537 71.0851 184.765 71.699C184.992 72.3128 185.093 72.9664 185.06 73.6203ZM183.48 73.6203C183.5 73.1513 183.425 72.683 183.259 72.2439C183.094 71.8047 182.84 71.4038 182.515 71.0654C182.19 70.727 181.799 70.4581 181.367 70.275C180.934 70.0919 180.47 69.9985 180 70.0003C179.074 70.0687 178.207 70.4851 177.575 71.1658C176.943 71.8465 176.591 72.7412 176.591 73.6703C176.591 74.5993 176.943 75.494 177.575 76.1747C178.207 76.8554 179.074 77.2718 180 77.3403C180.477 77.3442 180.95 77.2494 181.388 77.0619C181.827 76.8745 182.222 76.5983 182.549 76.2509C182.876 75.9034 183.127 75.4922 183.287 75.0429C183.448 74.5936 183.513 74.1161 183.48 73.6403V73.6203Z" fill="white"/>
<path d="M187.06 73.6205C187.056 72.6101 187.353 71.6213 187.911 70.7795C188.47 69.9378 189.267 69.281 190.199 68.8925C191.132 68.5041 192.159 68.4014 193.15 68.5975C194.141 68.7937 195.052 69.2798 195.766 69.9943C196.481 70.7087 196.967 71.6193 197.163 72.6104C197.359 73.6016 197.257 74.6287 196.868 75.5614C196.48 76.4941 195.823 77.2904 194.981 77.8493C194.139 78.4082 193.151 78.7044 192.14 78.7004C191.47 78.7113 190.805 78.5872 190.183 78.3358C189.562 78.0843 188.998 77.7105 188.524 77.2366C188.05 76.7627 187.676 76.1984 187.425 75.5772C187.173 74.956 187.049 74.2906 187.06 73.6205V73.6205ZM195.68 73.6205C195.733 73.1294 195.681 72.6328 195.53 72.1629C195.378 71.6929 195.128 71.2603 194.798 70.8929C194.468 70.5256 194.065 70.2319 193.613 70.0308C193.162 69.8297 192.674 69.7258 192.18 69.7258C191.686 69.7258 191.198 69.8297 190.747 70.0308C190.296 70.2319 189.892 70.5256 189.562 70.8929C189.232 71.2603 188.983 71.6929 188.831 72.1629C188.679 72.6328 188.628 73.1294 188.68 73.6205C188.66 74.0921 188.736 74.5629 188.902 75.0045C189.069 75.446 189.324 75.8492 189.651 76.1894C189.978 76.5297 190.371 76.8001 190.806 76.9842C191.241 77.1682 191.708 77.2622 192.18 77.2605C192.649 77.2566 193.112 77.1595 193.543 76.9747C193.974 76.7899 194.363 76.5212 194.689 76.1842C195.015 75.8473 195.27 75.4488 195.441 75.012C195.611 74.5753 195.692 74.109 195.68 73.6405V73.6205Z" fill="white"/>
<path d="M208.8 77.1403V81.3203H207.26V78.5003H199.6V81.3203H198.06V77.1403H199.16C200.16 76.1403 200.38 74.1403 200.44 71.5003L200.5 68.7603H207.22V77.1403H208.8ZM200.8 77.1403H205.7V70.1403H202L201.94 71.5202C201.84 74.3202 201.4 76.2603 200.78 77.1403H200.8Z" fill="white"/>
<path d="M218.52 72.5002V78.5002H217.08V77.2402C216.691 77.7309 216.19 78.1213 215.62 78.3788C215.049 78.6363 214.425 78.7534 213.8 78.7202C211.8 78.7202 210.4 77.7202 210.4 75.9802C210.4 74.2402 211.78 73.2602 213.9 73.2602H217V72.4202C217.035 72.0972 216.999 71.7704 216.892 71.4634C216.786 71.1563 216.612 70.8769 216.384 70.6452C216.157 70.4135 215.88 70.2354 215.575 70.1239C215.27 70.0123 214.943 69.9701 214.62 70.0002C214.055 70.007 213.5 70.1528 213.005 70.4249C212.509 70.697 212.089 71.0869 211.78 71.5602L210.78 70.7202C211.197 70.0412 211.788 69.4853 212.491 69.1093C213.193 68.7333 213.983 68.5507 214.78 68.5802C216.94 68.5402 218.52 69.8802 218.52 72.5002ZM217 74.7602V74.5202H214.1C212.74 74.5202 212 74.9802 212 75.9002C212 76.8202 212.94 77.4402 214 77.4402C214.373 77.4618 214.747 77.4096 215.1 77.2865C215.452 77.1634 215.777 76.9719 216.056 76.7229C216.335 76.474 216.562 76.1724 216.724 75.8356C216.886 75.4988 216.979 75.1334 217 74.7602Z" fill="white"/>
<path d="M221.62 77.4602C221.62 77.211 221.694 76.9674 221.832 76.7602C221.971 76.553 222.167 76.3915 222.398 76.2961C222.628 76.2007 222.881 76.1758 223.126 76.2244C223.37 76.273 223.595 76.393 223.771 76.5692C223.947 76.7455 224.067 76.97 224.116 77.2144C224.164 77.4588 224.139 77.7121 224.044 77.9424C223.949 78.1726 223.787 78.3694 223.58 78.5078C223.373 78.6463 223.129 78.7202 222.88 78.7202C222.714 78.7229 222.549 78.6922 222.394 78.6298C222.24 78.5674 222.1 78.4747 221.983 78.3572C221.865 78.2396 221.773 78.0996 221.71 77.9456C221.648 77.7915 221.617 77.6264 221.62 77.4602V77.4602Z" fill="white"/>
<path d="M12.7 101.1V105.32H11.14V102.5H1.56V105.32H0V101.1H1C2.42 99.8003 3.08 96.8803 3.08 91.0003V89.3403H11.08V101.14L12.7 101.1ZM2.76 101.1H9.54V90.7003H4.54C4.48 96.3003 3.9 99.5803 2.76 101.1Z" fill="white"/>
<path d="M23.3999 98.1002H15.6999C15.7641 98.9941 16.1737 99.828 16.8419 100.425C17.5101 101.022 18.3844 101.336 19.2799 101.3C19.8439 101.298 20.4014 101.18 20.9176 100.953C21.4337 100.726 21.8975 100.395 22.2799 99.9802L23.1799 100.98C22.6845 101.52 22.0815 101.95 21.4098 102.243C20.7382 102.536 20.0126 102.685 19.2799 102.68C18.6115 102.692 17.9473 102.572 17.3252 102.327C16.7031 102.082 16.1354 101.717 15.6544 101.253C14.6829 100.315 14.1238 99.0302 14.0999 97.6802C14.076 96.3303 14.5894 95.0261 15.5271 94.0547C16.4648 93.0833 17.75 92.5241 19.0999 92.5002C19.6852 92.4796 20.2684 92.5789 20.8138 92.7922C21.3592 93.0055 21.8552 93.3282 22.2711 93.7404C22.6871 94.1526 23.0142 94.6456 23.2325 95.189C23.4507 95.7325 23.5553 96.3148 23.5399 96.9002C23.5337 97.3039 23.4868 97.706 23.3999 98.1002V98.1002ZM15.7599 96.7402H21.9399C21.9489 96.3615 21.8792 95.9851 21.7353 95.6347C21.5914 95.2842 21.3764 94.9675 21.1039 94.7044C20.8314 94.4412 20.5072 94.2375 20.152 94.106C19.7967 93.9744 19.4181 93.918 19.0399 93.9402C18.2494 93.94 17.4847 94.2219 16.8834 94.7352C16.2821 95.2484 15.8837 95.9594 15.7599 96.7402V96.7402Z" fill="white"/>
<path d="M33.5798 92.7603V102.5H31.9998V94.1403H28.4198V95.3402C28.2798 100.24 27.5998 102.58 25.2798 102.58C25.1033 102.581 24.9277 102.554 24.7598 102.5V101.2C24.8929 101.211 25.0266 101.211 25.1598 101.2C26.4798 101.2 26.8798 98.9803 26.9598 95.2603L26.9998 92.7603H33.5798Z" fill="white"/>
<path d="M44.2802 96.5002V102.5H42.8402V101.24C42.4513 101.731 41.9507 102.121 41.38 102.379C40.8094 102.636 40.1853 102.753 39.5602 102.72C37.5602 102.72 36.1602 101.72 36.1602 99.9802C36.1602 98.2402 37.5402 97.2602 39.6602 97.2602H42.7402V96.4202C42.7752 96.0991 42.7388 95.7741 42.6335 95.4687C42.5281 95.1632 42.3565 94.8849 42.131 94.6536C41.9054 94.4223 41.6314 94.2437 41.3287 94.1308C41.0261 94.0178 40.7021 93.9732 40.3802 94.0002C39.8151 94.007 39.2603 94.1528 38.765 94.4249C38.2696 94.697 37.849 95.0869 37.5402 95.5602L36.5402 94.7202C36.9576 94.0412 37.548 93.4853 38.2508 93.1093C38.9536 92.7333 39.7436 92.5507 40.5402 92.5802C42.7002 92.5402 44.2802 93.8802 44.2802 96.5002ZM42.7402 98.7602V98.5202H39.8402C38.4802 98.5202 37.7402 98.9802 37.7402 99.9002C37.7402 100.82 38.6802 101.44 39.7402 101.44C40.1132 101.462 40.4869 101.41 40.8398 101.287C41.1927 101.163 41.5177 100.972 41.7964 100.723C42.0751 100.474 42.302 100.172 42.4639 99.8356C42.6259 99.4988 42.7197 99.1334 42.7402 98.7602V98.7602Z" fill="white"/>
<path d="M56.1401 98.1003H48.4401C48.5043 98.9906 48.911 99.8214 49.5749 100.418C50.2387 101.015 51.108 101.331 52.0001 101.3C52.5626 101.301 53.1192 101.186 53.6353 100.962C54.1514 100.739 54.616 100.411 55.0001 100L55.9001 101C55.4047 101.54 54.8017 101.97 54.13 102.263C53.4584 102.556 52.7328 102.705 52.0001 102.7C51.3317 102.712 50.6675 102.592 50.0454 102.347C49.4234 102.102 48.8556 101.737 48.3746 101.273C47.8936 100.809 47.5087 100.254 47.242 99.6413C46.9753 99.0282 46.832 98.3687 46.8201 97.7003C46.8083 97.0318 46.9283 96.3676 47.1731 95.7455C47.418 95.1235 47.783 94.5557 48.2473 94.0747C48.7116 93.5937 49.2661 93.2089 49.8791 92.9422C50.4922 92.6754 51.1517 92.5321 51.8201 92.5203C52.4054 92.4996 52.9887 92.5989 53.534 92.8122C54.0794 93.0255 54.5754 93.3482 54.9913 93.7604C55.4073 94.1726 55.7345 94.6656 55.9527 95.2091C56.1709 95.7525 56.2755 96.3348 56.2601 96.9203C56.2592 97.3166 56.219 97.7119 56.1401 98.1003V98.1003ZM48.5001 96.7403H54.6801C54.6891 96.3615 54.6194 95.9851 54.4755 95.6347C54.3316 95.2843 54.1166 94.9675 53.8441 94.7044C53.5716 94.4413 53.2475 94.2375 52.8922 94.106C52.537 93.9745 52.1583 93.918 51.7801 93.9403C50.9896 93.94 50.2249 94.2219 49.6236 94.7352C49.0223 95.2485 48.624 95.9595 48.5001 96.7403V96.7403Z" fill="white"/>
<path d="M59 92.54H59.56L64.14 98L68.74 92.52H69.28V102.52H67.74V95.92L64.42 99.92H63.82L60.5 95.92V102.5H59V92.54Z" fill="white"/>
<path d="M77.5802 97.6204C77.5762 96.9505 77.7056 96.2865 77.9607 95.667C78.2158 95.0476 78.5916 94.4851 79.0663 94.0123C79.5409 93.5395 80.1049 93.1659 80.7253 92.9132C81.3458 92.6605 82.0103 92.5338 82.6802 92.5404C83.4712 92.5303 84.252 92.7191 84.951 93.0896C85.6499 93.46 86.2446 94.0002 86.6802 94.6604L85.5802 95.5404C85.133 94.8968 84.4919 94.4128 83.7505 94.1589C83.009 93.905 82.2058 93.8944 81.4579 94.1288C80.71 94.3631 80.0565 94.8301 79.5925 95.4618C79.1285 96.0934 78.8782 96.8567 78.8782 97.6404C78.8782 98.4242 79.1285 99.1875 79.5925 99.8191C80.0565 100.451 80.71 100.918 81.4579 101.152C82.2058 101.386 83.009 101.376 83.7505 101.122C84.4919 100.868 85.133 100.384 85.5802 99.7404L86.6802 100.6C86.2452 101.261 85.6507 101.802 84.9516 102.173C84.2525 102.543 83.4714 102.731 82.6802 102.72C82.009 102.726 81.3434 102.597 80.7223 102.343C80.1011 102.089 79.5368 101.713 79.0621 101.239C78.5875 100.764 78.212 100.2 77.9576 99.5784C77.7032 98.9572 77.5749 98.2917 77.5802 97.6204Z" fill="white"/>
<path d="M96.6 96.5002V102.5H95.16V101.24C94.7712 101.731 94.2705 102.121 93.6998 102.379C93.1292 102.636 92.5052 102.753 91.88 102.72C89.88 102.72 88.48 101.72 88.48 99.9802C88.48 98.2402 89.86 97.2602 91.98 97.2602H95.06V96.4202C95.095 96.0991 95.0586 95.7741 94.9533 95.4687C94.848 95.1632 94.6764 94.8849 94.4508 94.6536C94.2252 94.4223 93.9513 94.2437 93.6486 94.1308C93.3459 94.0178 93.0219 93.9732 92.7 94.0002C92.1349 94.007 91.5801 94.1528 91.0848 94.4249C90.5895 94.697 90.1688 95.0869 89.86 95.5602L88.86 94.7202C89.2774 94.0412 89.8678 93.4853 90.5706 93.1093C91.2734 92.7333 92.0635 92.5507 92.86 92.5802C95 92.5402 96.6 93.8802 96.6 96.5002ZM95.06 98.7602V98.5202H92.16C90.8 98.5202 90.06 98.9802 90.06 99.9002C90.06 100.82 91 101.44 92.06 101.44C92.4331 101.462 92.8067 101.41 93.1596 101.287C93.5125 101.163 93.8376 100.972 94.1163 100.723C94.395 100.474 94.6218 100.172 94.7837 99.8356C94.9457 99.4988 95.0395 99.1334 95.06 98.7602V98.7602Z" fill="white"/>
<path d="M107.9 92.5403V102.54H106.36V95.6203L100.42 102.72H99.8599V92.7203H101.4V99.6203L107.34 92.5003L107.9 92.5403ZM101.08 87.8802V87.2603H102.38V87.8402C102.38 89.1402 103.02 89.8402 104.1 89.8402C105.18 89.8402 105.84 89.1002 105.84 87.8402V87.2603H107.14V87.8802C107.14 88.6839 106.821 89.4546 106.252 90.0228C105.684 90.591 104.913 90.9103 104.11 90.9103C103.306 90.9103 102.536 90.591 101.967 90.0228C101.399 89.4546 101.08 88.6839 101.08 87.8802V87.8802Z" fill="white"/>
<path d="M113.26 94.1403H110V92.7603H118.08V94.1403H114.8V102.5H113.28L113.26 94.1403Z" fill="white"/>
<path d="M120.18 92.7603H121.72V96.1203H124C126.2 96.1203 127.64 97.3803 127.64 99.3003C127.64 101.22 126.2 102.5 124 102.5H120.14L120.18 92.7603ZM123.96 101.14C125.34 101.14 126.1 100.48 126.1 99.3203C126.1 98.1603 125.32 97.4803 123.94 97.4803H121.72V101.14H123.96ZM129.1 92.7603H130.64V102.5H129.1V92.7603Z" fill="white"/>
<path d="M134.38 100.7H136.2L135.38 106.08H134.12L134.38 100.7Z" fill="white"/>
<path d="M151.56 102.72V106.1H150V102.72C146.8 102.6 144.5 100.72 144.5 97.64C144.5 94.56 146.84 92.7 150 92.58V87.5H151.54V92.58C154.74 92.7 157.04 94.58 157.04 97.66C157.04 100.74 154.72 102.6 151.56 102.72ZM150 101.36V93.94C147.62 94.04 146.06 95.38 146.06 97.66C146.06 99.94 147.66 101.26 150 101.36ZM155.44 97.64C155.44 95.36 153.88 94.04 151.5 93.94V101.36C153.92 101.26 155.48 99.92 155.48 97.64H155.44Z" fill="white"/>
<path d="M167.8 92.54V102.54H166.26V95.62L160.32 102.72H159.76V92.72H161.3V99.62L167.24 92.5L167.8 92.54Z" fill="white"/>
<path d="M181.12 97.6203C181.154 98.2754 181.055 98.9305 180.828 99.5461C180.601 100.162 180.252 100.725 179.801 101.202C179.351 101.678 178.808 102.059 178.206 102.32C177.605 102.581 176.956 102.717 176.3 102.72C175.62 102.734 174.946 102.596 174.327 102.316C173.707 102.035 173.158 101.62 172.72 101.1V106.1H171.18V92.7603H172.62V94.3203C173.044 93.7486 173.601 93.2881 174.241 92.9781C174.882 92.6681 175.589 92.5179 176.3 92.5403C176.955 92.5422 177.602 92.6768 178.203 92.9361C178.804 93.1954 179.347 93.574 179.797 94.0489C180.248 94.5238 180.597 95.0851 180.825 95.699C181.052 96.3128 181.153 96.9664 181.12 97.6203V97.6203ZM179.54 97.6203C179.56 97.153 179.486 96.6864 179.321 96.2486C179.157 95.8108 178.905 95.4108 178.582 95.0727C178.259 94.7345 177.87 94.4652 177.441 94.2809C177.011 94.0966 176.548 94.0012 176.08 94.0003C175.154 94.0687 174.287 94.4851 173.655 95.1658C173.023 95.8465 172.671 96.7412 172.671 97.6703C172.671 98.5993 173.023 99.494 173.655 100.175C174.287 100.855 175.154 101.272 176.08 101.34C176.555 101.341 177.026 101.245 177.462 101.056C177.898 100.867 178.291 100.591 178.616 100.244C178.94 99.8964 179.19 99.4861 179.349 99.0382C179.508 98.5903 179.573 98.1144 179.54 97.6403V97.6203Z" fill="white"/>
<path d="M183.82 92.54H184.38L189 98L193.6 92.52H194.14V102.52H192.6V95.92L189.28 99.92H188.68L185.36 95.92V102.5H183.82V92.54Z" fill="white"/>
<path d="M206.14 98.1002H198.44C198.504 98.9941 198.914 99.828 199.582 100.425C200.25 101.022 201.125 101.336 202.02 101.3C202.584 101.298 203.142 101.18 203.658 100.953C204.174 100.726 204.638 100.395 205.02 99.9802L205.92 100.98C205.425 101.52 204.822 101.95 204.15 102.243C203.478 102.536 202.753 102.685 202.02 102.68C201.352 102.692 200.688 102.572 200.065 102.327C199.443 102.082 198.876 101.717 198.395 101.253C197.914 100.789 197.529 100.234 197.262 99.6212C196.995 99.0082 196.852 98.3487 196.84 97.6802C196.828 97.0118 196.948 96.3476 197.193 95.7255C197.438 95.1035 197.803 94.5357 198.267 94.0547C198.732 93.5737 199.286 93.1888 199.899 92.9221C200.512 92.6554 201.172 92.5121 201.84 92.5002C202.425 92.4796 203.009 92.5789 203.554 92.7922C204.099 93.0055 204.595 93.3282 205.011 93.7404C205.427 94.1526 205.754 94.6456 205.973 95.189C206.191 95.7325 206.296 96.3148 206.28 96.9002C206.274 97.3039 206.227 97.706 206.14 98.1002V98.1002ZM198.5 96.7402H204.68C204.689 96.3615 204.619 95.9851 204.476 95.6347C204.332 95.2842 204.117 94.9675 203.844 94.7044C203.572 94.4412 203.247 94.2375 202.892 94.106C202.537 93.9744 202.158 93.918 201.78 93.9402C200.99 93.94 200.225 94.2219 199.624 94.7352C199.022 95.2484 198.624 95.9594 198.5 96.7402V96.7402Z" fill="white"/>
<path d="M209 92.7603H210.54V96.6403H215.32V92.7603H216.86V102.5H215.32V98.0003H210.5V102.5H209V92.7603Z" fill="white"/>
<path d="M220.2 92.7603H221.74V96.6403H226.52V92.7603H228.06V102.5H226.52V98.0003H221.74V102.5H220.2V92.7603Z" fill="white"/>
<path d="M231.44 92.7603H233V96.1203H235.32C237.52 96.1203 238.96 97.3803 238.96 99.3003C238.96 101.22 237.52 102.5 235.32 102.5H231.46L231.44 92.7603ZM235.22 101.14C236.6 101.14 237.36 100.48 237.36 99.3203C237.36 98.1603 236.58 97.4803 235.2 97.4803H233V101.14H235.22ZM240.36 92.7603H241.9V102.5H240.36V92.7603Z" fill="white"/>
<path d="M253.88 98.1002H246.18C246.244 98.9941 246.654 99.828 247.322 100.425C247.99 101.022 248.864 101.336 249.76 101.3C250.324 101.298 250.881 101.18 251.398 100.953C251.914 100.726 252.378 100.395 252.76 99.9802L253.66 100.98C253.164 101.52 252.561 101.95 251.89 102.243C251.218 102.536 250.493 102.685 249.76 102.68C249.091 102.692 248.427 102.572 247.805 102.327C247.183 102.082 246.615 101.717 246.134 101.253C245.653 100.789 245.269 100.234 245.002 99.6212C244.735 99.0082 244.592 98.3487 244.58 97.6802C244.568 97.0118 244.688 96.3476 244.933 95.7255C245.178 95.1035 245.543 94.5357 246.007 94.0547C246.471 93.5737 247.026 93.1888 247.639 92.9221C248.252 92.6554 248.911 92.5121 249.58 92.5002C250.165 92.4796 250.748 92.5789 251.294 92.7922C251.839 93.0055 252.335 93.3282 252.751 93.7404C253.167 94.1526 253.494 94.6456 253.712 95.189C253.931 95.7325 254.035 96.3148 254.02 96.9002C254.014 97.3039 253.967 97.706 253.88 98.1002V98.1002ZM246.24 96.7402H252.42C252.429 96.3615 252.359 95.9851 252.215 95.6347C252.071 95.2842 251.856 94.9675 251.584 94.7044C251.311 94.4412 250.987 94.2375 250.632 94.106C250.277 93.9744 249.898 93.918 249.52 93.9402C248.729 93.94 247.965 94.2219 247.363 94.7352C246.762 95.2484 246.364 95.9594 246.24 96.7402V96.7402Z" fill="white"/>
<path d="M261.6 97.6204C261.596 96.9505 261.725 96.2865 261.98 95.667C262.235 95.0476 262.611 94.4851 263.086 94.0123C263.56 93.5395 264.124 93.1659 264.745 92.9132C265.365 92.6605 266.03 92.5338 266.7 92.5404C267.491 92.5303 268.272 92.7191 268.971 93.0896C269.669 93.46 270.264 94.0002 270.7 94.6604L269.6 95.5404C269.153 94.8968 268.511 94.4128 267.77 94.1589C267.029 93.905 266.225 93.8944 265.477 94.1288C264.73 94.3631 264.076 94.8301 263.612 95.4618C263.148 96.0934 262.898 96.8567 262.898 97.6404C262.898 98.4242 263.148 99.1875 263.612 99.8191C264.076 100.451 264.73 100.918 265.477 101.152C266.225 101.386 267.029 101.376 267.77 101.122C268.511 100.868 269.153 100.384 269.6 99.7404L270.7 100.6C270.265 101.261 269.67 101.802 268.971 102.173C268.272 102.543 267.491 102.731 266.7 102.72C266.029 102.726 265.363 102.597 264.742 102.343C264.121 102.089 263.556 101.713 263.082 101.239C262.607 100.764 262.232 100.2 261.977 99.5784C261.723 98.9572 261.594 98.2917 261.6 97.6204V97.6204Z" fill="white"/>
<path d="M275.3 94.1403H272V92.7603H280.08V94.1403H276.8V102.5H275.3V94.1403Z" fill="white"/>
<path d="M290.26 92.54V102.54H288.72V95.62L282.78 102.72H282.22V92.72H283.76V99.62L289.7 92.5L290.26 92.54Z" fill="white"/>
<path d="M301 92.7602V102.5H299.46V94.1402H295.84V95.3402C295.7 100.24 295.02 102.58 292.7 102.58C292.524 102.581 292.348 102.554 292.18 102.5V101.2C292.313 101.211 292.447 101.211 292.58 101.2C293.9 101.2 294.3 98.9802 294.38 95.2602L294.44 92.7202L301 92.7602Z" fill="white"/>
<path d="M312.44 92.54V102.54H310.9V95.62L304.96 102.72H304.4V92.72H305.94V99.62L311.88 92.5L312.44 92.54Z" fill="white"/>
<path d="M316.18 100.7H318L317.18 106.08H315.92L316.18 100.7Z" fill="white"/>
<path d="M10.0599 116.76L5.25986 127.86C4.49986 129.6 3.43986 130.32 1.95986 130.32C1.45364 130.314 0.950011 130.247 0.459863 130.12V128.82C0.850666 128.879 1.2448 128.912 1.63986 128.92C2.12878 128.947 2.61223 128.807 3.01164 128.524C3.41105 128.24 3.70293 127.83 3.83986 127.36L4.35986 126.2L0.359863 116.76H1.99986L5.21986 124.52L8.43986 116.76H10.0599Z" fill="white"/>
<path d="M12.2798 116.76H20.0598V126.5H18.4998V118.14H13.8198V126.5H12.2798V116.76Z" fill="white"/>
<path d="M30.7401 120.5V126.5H29.3001V125.24C28.9093 125.734 28.4054 126.126 27.831 126.384C27.2566 126.641 26.6286 126.757 26.0001 126.72C24.0001 126.72 22.6001 125.72 22.6001 123.98C22.6001 122.24 23.9801 121.26 26.1001 121.26H29.2001V120.42C29.2352 120.099 29.1987 119.774 29.0934 119.469C28.9881 119.163 28.8165 118.885 28.5909 118.654C28.3653 118.422 28.0914 118.244 27.7887 118.131C27.486 118.018 27.1621 117.973 26.8401 118C26.2786 118.003 25.7262 118.142 25.2312 118.407C24.7361 118.672 24.3135 119.054 24.0001 119.52L23.0001 118.68C23.4176 118.001 24.0079 117.445 24.7107 117.069C25.4135 116.693 26.2036 116.511 27.0001 116.54C29.1601 116.54 30.7401 117.88 30.7401 120.5ZM29.2001 122.76V122.52H26.3001C24.9401 122.52 24.2001 122.98 24.2001 123.9C24.2001 124.82 25.1401 125.44 26.2001 125.44C26.5732 125.462 26.9469 125.41 27.2997 125.286C27.6526 125.163 27.9777 124.972 28.2564 124.723C28.5351 124.474 28.7619 124.172 28.9239 123.836C29.0858 123.499 29.1797 123.133 29.2001 122.76V122.76Z" fill="white"/>
<path d="M34 116.76H35.54V126.5H34V116.76ZM42.2 126.5H40.26L35.74 121.22L39.84 116.76H41.76L37.62 121.18L42.2 126.5Z" fill="white"/>
<path d="M43.3 121.62C43.296 120.61 43.5923 119.621 44.1511 118.78C44.71 117.938 45.5063 117.281 46.439 116.893C47.3717 116.504 48.3988 116.401 49.39 116.598C50.3812 116.794 51.2917 117.28 52.0062 117.994C52.7206 118.709 53.2068 119.619 53.4029 120.61C53.5991 121.602 53.4964 122.629 53.1079 123.561C52.7194 124.494 52.0626 125.29 51.2209 125.849C50.3791 126.408 49.3903 126.704 48.38 126.7C47.7099 126.711 47.0444 126.587 46.4232 126.336C45.802 126.084 45.2377 125.711 44.7638 125.237C44.2899 124.763 43.9161 124.198 43.6646 123.577C43.4132 122.956 43.2892 122.291 43.3 121.62ZM51.92 121.62C51.9725 121.129 51.9212 120.633 51.7693 120.163C51.6173 119.693 51.3682 119.26 51.0381 118.893C50.708 118.526 50.3043 118.232 49.8532 118.031C49.4022 117.83 48.9138 117.726 48.42 117.726C47.9261 117.726 47.4378 117.83 46.9867 118.031C46.5356 118.232 46.1319 118.526 45.8018 118.893C45.4717 119.26 45.2226 119.693 45.0707 120.163C44.9187 120.633 44.8674 121.129 44.92 121.62C44.8997 122.092 44.9753 122.563 45.1422 123.004C45.3091 123.446 45.5638 123.849 45.891 124.189C46.2182 124.53 46.611 124.8 47.0457 124.984C47.4804 125.168 47.9479 125.262 48.42 125.26C48.8887 125.257 49.3519 125.159 49.7827 124.975C50.2135 124.79 50.6031 124.521 50.9289 124.184C51.2547 123.847 51.5102 123.449 51.6803 123.012C51.8505 122.575 51.9319 122.109 51.92 121.64V121.62Z" fill="white"/>
<path d="M64.1802 123.56C64.1802 125.26 62.8602 126.5 60.7202 126.5H56.2002V116.76H60.2002C62.1202 116.76 63.3402 117.76 63.3402 119.34C63.3472 119.713 63.2591 120.081 63.0841 120.41C62.9091 120.739 62.653 121.018 62.3402 121.22C62.8613 121.354 63.3238 121.656 63.6563 122.079C63.9889 122.502 64.173 123.022 64.1802 123.56ZM57.7402 120.74H60.2402C61.3202 120.74 61.8402 120.24 61.8402 119.42C61.8402 118.6 61.3202 118.14 60.2402 118.14H57.7402V120.74ZM62.6402 123.56C62.6402 122.66 61.9002 122.1 60.6402 122.1H57.7402V125.1H60.6202C61.9402 125.14 62.6402 124.46 62.6402 123.56V123.56Z" fill="white"/>
<path d="M67.0801 116.76H68.6201V126.5H67.0801V116.76ZM75.2801 126.5H73.3401L68.8201 121.22L72.9201 116.76H74.8401L70.7001 121.18L75.2801 126.5Z" fill="white"/>
<path d="M85.9402 116.76L81.1402 127.86C80.3802 129.6 79.3202 130.32 77.8402 130.32C77.334 130.314 76.8304 130.247 76.3402 130.12V128.82C76.731 128.879 77.1252 128.912 77.5202 128.92C78.0092 128.947 78.4926 128.807 78.892 128.524C79.2914 128.24 79.5833 127.83 79.7202 127.36L80.2402 126.2L76.2402 116.76H77.9002L81.1202 124.52L84.3402 116.76H85.9402Z" fill="white"/>
<path d="M86.5998 125.46C86.5998 125.211 86.6737 124.967 86.8121 124.76C86.9506 124.553 87.1474 124.391 87.3776 124.296C87.6078 124.201 87.8612 124.176 88.1056 124.224C88.35 124.273 88.5745 124.393 88.7507 124.569C88.9269 124.745 89.0469 124.97 89.0956 125.214C89.1442 125.459 89.1192 125.712 89.0239 125.942C88.9285 126.173 88.767 126.369 88.5598 126.508C88.3526 126.646 88.109 126.72 87.8598 126.72C87.6936 126.723 87.5285 126.692 87.3744 126.63C87.2203 126.567 87.0803 126.475 86.9628 126.357C86.8453 126.24 86.7525 126.1 86.6902 125.946C86.6278 125.791 86.5971 125.626 86.5998 125.46V125.46Z" fill="white"/>
<path d="M108.8 113.08V126.5H107.24V116.26L98.6401 126.72H98.0801V113.3H99.6401V123.54L108.24 113.08H108.8Z" fill="white"/>
<path d="M127.06 125.14V129.32H125.52V126.5H117.86V129.32H116.32V125.14H117.42C118.42 124.14 118.64 122.14 118.7 119.5L118.76 116.76H125.48V125.14H127.06ZM119.06 125.14H123.96V118.14H120.24L120.18 119.52C120.1 122.32 119.66 124.26 119 125.14H119.06Z" fill="white"/>
<path d="M137.88 122.1H130.18C130.244 122.994 130.654 123.828 131.322 124.425C131.99 125.022 132.864 125.336 133.76 125.3C134.324 125.298 134.881 125.18 135.398 124.953C135.914 124.726 136.378 124.395 136.76 123.98L137.66 124.98C137.164 125.52 136.562 125.95 135.89 126.243C135.218 126.536 134.493 126.685 133.76 126.68C132.41 126.704 131.106 126.191 130.134 125.253C129.163 124.315 128.604 123.03 128.58 121.68C128.556 120.33 129.069 119.026 130.007 118.055C130.945 117.083 132.23 116.524 133.58 116.5C134.165 116.48 134.748 116.579 135.294 116.792C135.839 117.005 136.335 117.328 136.751 117.74C137.167 118.153 137.494 118.646 137.712 119.189C137.931 119.732 138.035 120.315 138.02 120.9C138.014 121.304 137.967 121.706 137.88 122.1ZM130.24 120.74H136.42C136.429 120.362 136.359 119.985 136.215 119.635C136.071 119.284 135.856 118.967 135.584 118.704C135.311 118.441 134.987 118.237 134.632 118.106C134.277 117.974 133.898 117.918 133.52 117.94C132.729 117.94 131.965 118.222 131.363 118.735C130.762 119.248 130.364 119.959 130.24 120.74V120.74Z" fill="white"/>
<path d="M148.06 116.76V126.5H146.52V118.14H142.9V119.34C142.76 124.24 142.08 126.58 139.76 126.58C139.584 126.581 139.408 126.554 139.24 126.5V125.2C139.373 125.211 139.507 125.211 139.64 125.2C140.96 125.2 141.36 122.98 141.44 119.26L141.5 116.72L148.06 116.76Z" fill="white"/>
<path d="M158.76 120.5V126.5H157.32V125.24C156.931 125.731 156.431 126.121 155.86 126.379C155.289 126.636 154.665 126.753 154.04 126.72C152.04 126.72 150.64 125.72 150.64 123.98C150.64 122.24 152.02 121.26 154.14 121.26H157.22V120.42C157.262 120.096 157.23 119.766 157.128 119.456C157.025 119.146 156.855 118.862 156.628 118.626C156.402 118.39 156.126 118.208 155.82 118.093C155.514 117.977 155.186 117.932 154.86 117.96C154.295 117.967 153.74 118.113 153.245 118.385C152.75 118.657 152.329 119.047 152.02 119.52L151.02 118.68C151.438 118.001 152.028 117.445 152.731 117.069C153.434 116.693 154.224 116.511 155.02 116.54C157.18 116.54 158.76 117.88 158.76 120.5ZM157.22 122.76V122.52H154.32C152.96 122.52 152.22 122.98 152.22 123.9C152.22 124.82 153.16 125.44 154.22 125.44C154.593 125.462 154.967 125.41 155.32 125.286C155.673 125.163 155.998 124.972 156.276 124.723C156.555 124.474 156.782 124.172 156.944 123.836C157.106 123.499 157.2 123.133 157.22 122.76V122.76Z" fill="white"/>
<path d="M170.62 122.1H162.92C162.984 122.994 163.394 123.828 164.062 124.425C164.73 125.022 165.605 125.336 166.5 125.3C167.064 125.298 167.622 125.18 168.138 124.953C168.654 124.726 169.118 124.395 169.5 123.98L170.4 124.98C169.905 125.52 169.302 125.95 168.63 126.243C167.958 126.536 167.233 126.685 166.5 126.68C165.15 126.704 163.846 126.191 162.875 125.253C161.903 124.315 161.344 123.03 161.32 121.68C161.296 120.33 161.81 119.026 162.747 118.055C163.685 117.083 164.97 116.524 166.32 116.5C166.905 116.48 167.489 116.579 168.034 116.792C168.579 117.005 169.075 117.328 169.491 117.74C169.907 118.153 170.234 118.646 170.453 119.189C170.671 119.732 170.776 120.315 170.76 120.9C170.754 121.304 170.707 121.706 170.62 122.1V122.1ZM163 120.74H169.18C169.189 120.362 169.119 119.985 168.975 119.635C168.832 119.284 168.617 118.967 168.344 118.704C168.072 118.441 167.747 118.237 167.392 118.106C167.037 117.974 166.658 117.918 166.28 117.94C165.49 117.94 164.725 118.222 164.124 118.735C163.522 119.248 163.124 119.959 163 120.74V120.74Z" fill="white"/>
<path d="M173.44 116.54H174L178.62 122.02L183.22 116.54H183.76V126.54H182.22V119.96L178.9 123.96H178.3L174.98 119.96V126.54H173.44V116.54Z" fill="white"/>
<path d="M198.8 126.5L196.02 122.5L193.26 126.5H191.46L195.08 121.42L191.76 116.76H193.54L196.02 120.34L198.52 116.76H200.3L196.92 121.42L200.58 126.5H198.8Z" fill="white"/>
<path d="M201.7 121.62C201.696 120.61 201.992 119.621 202.551 118.78C203.11 117.938 203.906 117.281 204.839 116.893C205.772 116.504 206.799 116.401 207.79 116.598C208.781 116.794 209.692 117.28 210.406 117.994C211.121 118.709 211.607 119.619 211.803 120.61C211.999 121.602 211.896 122.629 211.508 123.561C211.119 124.494 210.463 125.29 209.621 125.849C208.779 126.408 207.79 126.704 206.78 126.7C206.11 126.711 205.444 126.587 204.823 126.336C204.202 126.084 203.638 125.711 203.164 125.237C202.69 124.763 202.316 124.198 202.065 123.577C201.813 122.956 201.689 122.291 201.7 121.62ZM210.32 121.62C210.372 121.129 210.321 120.633 210.169 120.163C210.017 119.693 209.768 119.26 209.438 118.893C209.108 118.526 208.704 118.232 208.253 118.031C207.802 117.83 207.314 117.726 206.82 117.726C206.326 117.726 205.838 117.83 205.387 118.031C204.936 118.232 204.532 118.526 204.202 118.893C203.872 119.26 203.623 119.693 203.471 120.163C203.319 120.633 203.267 121.129 203.32 121.62C203.3 122.092 203.375 122.563 203.542 123.004C203.709 123.446 203.964 123.849 204.291 124.189C204.618 124.53 205.011 124.8 205.446 124.984C205.88 125.168 206.348 125.262 206.82 125.26C207.289 125.257 207.752 125.159 208.183 124.975C208.613 124.79 209.003 124.521 209.329 124.184C209.655 123.847 209.91 123.449 210.08 123.012C210.25 122.575 210.332 122.109 210.32 121.64V121.62Z" fill="white"/>
<path d="M224.54 121.62C224.574 122.275 224.474 122.931 224.248 123.546C224.021 124.162 223.672 124.725 223.221 125.202C222.771 125.678 222.228 126.059 221.626 126.32C221.025 126.581 220.376 126.717 219.72 126.72C219.04 126.734 218.366 126.596 217.747 126.316C217.127 126.035 216.578 125.62 216.14 125.1V130.1H214.6V116.76H216V118.32C216.424 117.749 216.981 117.288 217.621 116.978C218.262 116.668 218.969 116.518 219.68 116.54C220.338 116.537 220.99 116.667 221.596 116.924C222.201 117.181 222.748 117.559 223.203 118.034C223.658 118.51 224.011 119.073 224.241 119.69C224.471 120.306 224.573 120.963 224.54 121.62V121.62ZM222.96 121.62C222.98 121.153 222.906 120.686 222.741 120.249C222.576 119.811 222.325 119.411 222.002 119.073C221.679 118.735 221.29 118.465 220.86 118.281C220.431 118.097 219.968 118.001 219.5 118C218.574 118.069 217.707 118.485 217.075 119.166C216.443 119.847 216.091 120.741 216.091 121.67C216.091 122.599 216.443 123.494 217.075 124.175C217.707 124.855 218.574 125.272 219.5 125.34C219.979 125.347 220.454 125.254 220.895 125.068C221.336 124.882 221.733 124.606 222.062 124.258C222.391 123.911 222.644 123.498 222.806 123.048C222.967 122.597 223.033 122.118 223 121.64L222.96 121.62Z" fill="white"/>
<path d="M226.54 121.62C226.536 120.61 226.833 119.621 227.391 118.78C227.95 117.938 228.747 117.281 229.679 116.893C230.612 116.504 231.639 116.401 232.63 116.598C233.621 116.794 234.532 117.28 235.246 117.994C235.961 118.709 236.447 119.619 236.643 120.61C236.839 121.602 236.737 122.629 236.348 123.561C235.96 124.494 235.303 125.29 234.461 125.849C233.619 126.408 232.631 126.704 231.62 126.7C230.95 126.711 230.285 126.587 229.663 126.336C229.042 126.084 228.478 125.711 228.004 125.237C227.53 124.763 227.156 124.198 226.905 123.577C226.653 122.956 226.529 122.291 226.54 121.62V121.62ZM235.16 121.62C235.213 121.129 235.161 120.633 235.01 120.163C234.858 119.693 234.608 119.26 234.278 118.893C233.948 118.526 233.545 118.232 233.093 118.031C232.642 117.83 232.154 117.726 231.66 117.726C231.166 117.726 230.678 117.83 230.227 118.031C229.776 118.232 229.372 118.526 229.042 118.893C228.712 119.26 228.463 119.693 228.311 120.163C228.159 120.633 228.108 121.129 228.16 121.62C228.14 122.092 228.216 122.563 228.382 123.004C228.549 123.446 228.804 123.849 229.131 124.189C229.458 124.53 229.851 124.8 230.286 124.984C230.721 125.168 231.188 125.262 231.66 125.26C232.129 125.257 232.592 125.159 233.023 124.975C233.454 124.79 233.843 124.521 234.169 124.184C234.495 123.847 234.75 123.449 234.921 123.012C235.091 122.575 235.172 122.109 235.16 121.64V121.62Z" fill="white"/>
<path d="M239.44 116.76H241V125.14H245.08V116.76H246.62V125.14H250.72V116.76H252.26V126.5H239.46L239.44 116.76Z" fill="white"/>
<path d="M254.92 121.62C254.916 120.61 255.212 119.621 255.771 118.78C256.33 117.938 257.126 117.281 258.059 116.893C258.992 116.504 260.019 116.401 261.01 116.598C262.001 116.794 262.912 117.28 263.626 117.994C264.341 118.709 264.827 119.619 265.023 120.61C265.219 121.602 265.116 122.629 264.728 123.561C264.34 124.494 263.683 125.29 262.841 125.849C261.999 126.408 261.01 126.704 260 126.7C259.33 126.711 258.665 126.587 258.043 126.336C257.422 126.084 256.858 125.711 256.384 125.237C255.91 124.763 255.536 124.198 255.285 123.577C255.033 122.956 254.909 122.291 254.92 121.62V121.62ZM263.54 121.62C263.593 121.129 263.541 120.633 263.389 120.163C263.237 119.693 262.988 119.26 262.658 118.893C262.328 118.526 261.924 118.232 261.473 118.031C261.022 117.83 260.534 117.726 260.04 117.726C259.546 117.726 259.058 117.83 258.607 118.031C258.156 118.232 257.752 118.526 257.422 118.893C257.092 119.26 256.843 119.693 256.691 120.163C256.539 120.633 256.488 121.129 256.54 121.62C256.52 122.092 256.595 122.563 256.762 123.004C256.929 123.446 257.184 123.849 257.511 124.189C257.838 124.53 258.231 124.8 258.666 124.984C259.101 125.168 259.568 125.262 260.04 125.26C260.509 125.257 260.972 125.159 261.403 124.975C261.834 124.79 262.223 124.521 262.549 124.184C262.875 123.847 263.13 123.449 263.3 123.012C263.471 122.575 263.552 122.109 263.54 121.64V121.62Z" fill="white"/>
<path d="M267.46 125.46C267.46 125.211 267.534 124.967 267.672 124.76C267.811 124.553 268.008 124.391 268.238 124.296C268.468 124.201 268.722 124.176 268.966 124.224C269.21 124.273 269.435 124.393 269.611 124.569C269.787 124.745 269.907 124.97 269.956 125.214C270.005 125.459 269.98 125.712 269.884 125.942C269.789 126.173 269.627 126.369 269.42 126.508C269.213 126.646 268.969 126.72 268.72 126.72C268.554 126.723 268.389 126.692 268.235 126.63C268.081 126.567 267.941 126.475 267.823 126.357C267.706 126.24 267.613 126.1 267.551 125.946C267.488 125.791 267.457 125.626 267.46 125.46V125.46Z" fill="white"/>
<path d="M19.2199 16.6304C19.2199 20.6304 16.1199 23.3804 11.6699 23.3804H1.43994V0.42041H9.57994C13.8199 0.42041 16.8499 3.03041 16.8499 6.82041C16.8732 7.59711 16.7341 8.37012 16.4413 9.08992C16.1486 9.80972 15.7087 10.4604 15.1499 11.0004C16.3504 11.3651 17.3983 12.113 18.1334 13.1298C18.8684 14.1465 19.2501 15.3761 19.2199 16.6304ZM5.99994 4.45041V9.71041H9.19994C11.1499 9.71041 12.1999 8.63041 12.1999 7.07041C12.1999 5.51041 11.1999 4.46041 9.19994 4.46041L5.99994 4.45041ZM14.6299 16.4504C14.6299 14.6804 13.4099 13.5604 11.3599 13.5604H5.99994V19.3404H11.3599C13.3799 19.3404 14.5899 18.2604 14.5899 16.4604L14.6299 16.4504Z" fill="white"/>
<path d="M37.73 11.9001C37.7309 10.3139 38.0487 8.74393 38.6646 7.28222C39.2805 5.82051 40.1823 4.49656 41.3168 3.38808C42.4514 2.27959 43.796 1.40891 45.2716 0.827123C46.7472 0.245337 48.3242 -0.0358277 49.91 0.000131415C51.4984 -0.0330196 53.0775 0.249572 54.5559 0.831512C56.0342 1.41345 57.3822 2.28316 58.5218 3.39017C59.6614 4.49718 60.5698 5.81946 61.1943 7.28029C61.8188 8.74113 62.1471 10.3114 62.16 11.9001C62.1471 13.4888 61.8188 15.0591 61.1943 16.52C60.5698 17.9808 59.6614 19.3031 58.5218 20.4101C57.3822 21.5171 56.0342 22.3868 54.5559 22.9688C53.0775 23.5507 51.4984 23.8333 49.91 23.8001C48.3242 23.8361 46.7472 23.5549 45.2716 22.9731C43.796 22.3914 42.4514 21.5207 41.3168 20.4122C40.1823 19.3037 39.2805 17.9798 38.6646 16.518C38.0487 15.0563 37.7309 13.4863 37.73 11.9001V11.9001ZM57.32 11.9001C57.3565 10.9088 57.1928 9.92025 56.8386 8.99361C56.4844 8.06697 55.947 7.22125 55.2586 6.507C54.5702 5.79274 53.7448 5.22461 52.8318 4.83657C51.9188 4.44852 50.937 4.24852 49.945 4.24852C48.953 4.24852 47.9711 4.44852 47.0581 4.83657C46.1452 5.22461 45.3198 5.79274 44.6314 6.507C43.9429 7.22125 43.4056 8.06697 43.0514 8.99361C42.6972 9.92025 42.5335 10.9088 42.57 11.9001C42.5335 12.8915 42.6972 13.88 43.0514 14.8067C43.4056 15.7333 43.9429 16.579 44.6314 17.2933C45.3198 18.0075 46.1452 18.5756 47.0581 18.9637C47.9711 19.3517 48.953 19.5517 49.945 19.5517C50.937 19.5517 51.9188 19.3517 52.8318 18.9637C53.7448 18.5756 54.5702 18.0075 55.2586 17.2933C55.947 16.579 56.4844 15.7333 56.8386 14.8067C57.1928 13.88 57.3565 12.8915 57.32 11.9001V11.9001Z" fill="white"/>
<path d="M98 16.5902C98 20.9002 94.59 23.7902 89.27 23.7902C87.4211 23.841 85.5954 23.3687 84.0032 22.4275C82.411 21.4863 81.1169 20.1146 80.27 18.4702L83.54 16.1002C84.1217 17.1098 84.9577 17.9494 85.9648 18.5354C86.9719 19.1214 88.1149 19.4334 89.28 19.4402C91.54 19.4402 93.42 18.3302 93.42 16.3402C93.42 14.7402 92.24 13.5602 89.7 13.5602H86.7V9.71023H89.3C91.3 9.71023 92.36 8.56022 92.36 7.07022C92.36 5.58022 91.21 4.36022 89.12 4.36022C88.1225 4.35759 87.1448 4.6381 86.3004 5.16915C85.456 5.70021 84.7797 6.46001 84.35 7.36022L81.09 5.00022C81.8289 3.44758 83.0075 2.14608 84.4794 1.25722C85.9514 0.368369 87.6519 -0.0687105 89.37 0.000224654C94 0.000224654 97 2.54022 97 6.68022C97.0047 7.57795 96.7991 8.46429 96.3997 9.26829C96.0003 10.0723 95.4182 10.7716 94.7 11.3102C95.706 11.7713 96.5548 12.5172 97.1413 13.4557C97.7278 14.3941 98.0264 15.4839 98 16.5902V16.5902Z" fill="white"/>
<path d="M139.58 19.1304V28.2804H134.88V23.3804H120.58V28.2904H115.88V19.1304H117.72C119.72 17.4604 120.54 12.6204 120.54 4.21041V0.42041H136.54V19.1304H139.58ZM122.85 19.1304H131.85V4.66041H125C124.9 11.6504 124.27 16.3904 122.84 19.1304H122.85Z" fill="white"/>
<path d="M178 0.42041L170.16 17.6004C168.39 21.4304 166.79 23.7604 162.58 23.7604C161.696 23.7662 160.816 23.6381 159.97 23.3804V19.3804C160.581 19.4471 161.196 19.4805 161.81 19.4804C162.422 19.509 163.031 19.3893 163.587 19.1316C164.142 18.8739 164.627 18.4859 165 18.0004L156.49 0.42041H161.74L167.58 12.9104L173 0.42041H178Z" fill="white"/>
<path d="M210 23.3804L205.13 15.7604L200.26 23.3804H194.9L202.52 11.6904L195.36 0.42041H200.72L205.14 7.66041L209.51 0.42041H214.83L207.77 11.6904L215.32 23.3804H210Z" fill="white"/>
</g>
<defs>
<clipPath id="clip0">
<rect width="349.46" height="130.33" fill="white"/>
</clipPath>
</defs>
</svg>
