<svg xmlns="http://www.w3.org/2000/svg" viewBox="0 0 38.42 51.42"><g id="Слой_2" data-name="Слой 2"><path d="M38.42 35.86c0 9.32-7.37 15.56-18.87 15.56-9 0-16-4.59-19.55-11.5l7.07-5.11C10.3 39.69 14.51 42 19.47 42s8.95-2.41 8.95-6.69c0-3.46-2.56-6-8-6h-6.59V21h5.79c4.36 0 6.62-2.48 6.62-5.71 0-3.46-2.48-5.86-7-5.86-4.29 0-7.74 2-10.3 6.47l-7.07-5C5.19 4.13 11.35 0 19.77 0c10.08 0 16.47 5.49 16.47 14.43a12.43 12.43 0 01-5 10 12.23 12.23 0 017.18 11.43z" fill="#fff" id="Слой_1-2" data-name="Слой 1"/></g></svg>